<?xml version="1.0" encoding="utf-8"?>
<!DOCTYPE svg PUBLIC "-//W3C//DTD SVG 1.0//EN" "http://www.w3.org/TR/2001/REC-SVG-20010904/DTD/svg10.dtd">
<svg    fill="#000000" xmlns="http://www.w3.org/2000/svg" xmlns:xlink="http://www.w3.org/1999/xlink" version="1.1" x="0px" y="0px" viewBox="0 0 16 16" style="enable-background:new 0 0 16 16;" xml:space="preserve"><path d="M7.5,16C3.364,16,0,12.636,0,8.5S3.364,1,7.5,1c0.234,0,0.467,0.011,0.701,0.045c0.204,0.03,0.37,0.182,0.416,0.383  c0.046,0.201-0.036,0.41-0.207,0.526C6.901,2.976,6,4.675,6,6.5C6,9.532,8.468,12,11.5,12c0.634,0,1.236-0.102,1.791-0.301  c0.197-0.071,0.423-0.009,0.557,0.155c0.134,0.165,0.149,0.396,0.038,0.577C12.513,14.666,10.125,16,7.5,16z M6.772,2.041  C3.53,2.403,1,5.162,1,8.5C1,12.084,3.916,15,7.5,15c1.826,0,3.519-0.744,4.731-2.039C11.992,12.986,11.748,13,11.5,13  C7.916,13,5,10.084,5,6.5C5,4.821,5.646,3.232,6.772,2.041z"></path></svg>