<svg enable-background="new 0 0 16 16" viewBox="0 0 16 16" xmlns="http://www.w3.org/2000/svg"><path d="m7.5 16c-4.136 0-7.5-3.364-7.5-7.5s3.364-7.5 7.5-7.5c.234 0 .467.011.701.045.204.03.37.182.416.383s-.036.41-.207.526c-1.509 1.022-2.41 2.721-2.41 4.546 0 3.032 2.468 5.5 5.5 5.5.634 0 1.236-.102 1.791-.301.197-.071.423-.009.557.155.134.165.149.396.038.577-1.373 2.235-3.761 3.569-6.386 3.569zm-.728-13.959c-3.242.362-5.772 3.121-5.772 6.459 0 3.584 2.916 6.5 6.5 6.5 1.826 0 3.519-.744 4.731-2.039-.239.025-.483.039-.731.039-3.584 0-6.5-2.916-6.5-6.5 0-1.679.646-3.268 1.772-4.459z"/></svg>