<svg enable-background="new 0 0 16 16" viewBox="0 0 16 16" xmlns="http://www.w3.org/2000/svg"><path d="m5.5 15c-.276 0-.5-.224-.5-.5s.224-.5.5-.5.5-.225.5-.5-.224-.5-.5-.5h-5c-.276 0-.5-.224-.5-.5s.224-.5.5-.5h5c.827 0 1.5.673 1.5 1.5s-.673 1.5-1.5 1.5z"/><path d="m7.5 11h-7c-.276 0-.5-.224-.5-.5s.224-.5.5-.5h7c.276 0 .5-.225.5-.5s-.224-.5-.5-.5-.5-.224-.5-.5.224-.5.5-.5c.827 0 1.5.673 1.5 1.5s-.673 1.5-1.5 1.5z"/><path d="m13 11h-2.5c-.276 0-.5-.224-.5-.5s.224-.5.5-.5h2.5c1.103 0 2-.897 2-2s-.897-2-2-2c-.147 0-.297.017-.428.042-.146.025-.297-.012-.411-.107-.114-.096-.181-.236-.181-.385-.146-1.16-.752-2.169-1.678-2.821-.669-.478-1.465-.729-2.302-.729-1.703 0-3.221 1.079-3.777 2.684-.085.245-.341.386-.594.321-.023-.005-.089-.005-.129-.005-1.378 0-2.5 1.122-2.5 2.5 0 .293.049.569.146.819.1.257-.028.547-.286.646-.256.1-.547-.027-.647-.285-.141-.366-.213-.763-.213-1.18 0-1.902 1.525-3.454 3.416-3.499.787-1.81 2.583-3.001 4.584-3.001 1.047 0 2.042.315 2.88.913 1.051.738 1.771 1.85 2.017 3.089 1.743-.059 3.103 1.31 3.103 2.998 0 1.654-1.346 3-3 3z"/><path d="m13 6c-.228 0-.448-.025-.654-.073-.27-.063-.436-.333-.372-.602.062-.268.331-.434.601-.372.131.031.275.047.425.047 1.103 0 2-.897 2-2s-.897-2-2-2c-.891 0-1.685.599-1.93 1.457-.076.265-.351.416-.618.344-.265-.076-.419-.353-.343-.618.367-1.286 1.556-2.183 2.891-2.183 1.654 0 3 1.346 3 3s-1.346 3-3 3z"/></svg>