<svg enable-background="new 0 0 16 16" viewBox="0 0 16 16" xmlns="http://www.w3.org/2000/svg"><path d="m13 13h-9.5c-1.93 0-3.5-1.57-3.5-3.5 0-1.902 1.525-3.454 3.416-3.499.787-1.81 2.583-3.001 4.584-3.001 2.409 0 4.436 1.688 4.902 4.001 1.748-.043 3.098 1.312 3.098 2.999 0 1.654-1.346 3-3 3zm-9.5-6c-1.378 0-2.5 1.121-2.5 2.5s1.122 2.5 2.5 2.5h9.5c1.103 0 2-.897 2-2s-.897-2-2-2c-.147 0-.297.017-.428.041-.137.026-.28-.007-.392-.091s-.184-.211-.197-.35c-.208-2.052-1.92-3.6-3.983-3.6-1.703 0-3.221 1.079-3.777 2.684-.085.244-.341.386-.594.321-.023-.005-.089-.005-.129-.005z"/></svg>