<?xml version="1.0" encoding="utf-8"?>
<!DOCTYPE svg PUBLIC "-//W3C//DTD SVG 1.0//EN" "http://www.w3.org/TR/2001/REC-SVG-20010904/DTD/svg10.dtd">
<svg    fill="#000000" xmlns="http://www.w3.org/2000/svg" xmlns:xlink="http://www.w3.org/1999/xlink" version="1.1" x="0px" y="0px" viewBox="0 0 16 16" style="enable-background:new 0 0 16 16;" xml:space="preserve"><g><path d="M13,13H3.5C1.57,13,0,11.43,0,9.5c0-1.902,1.525-3.454,3.416-3.499C4.203,4.191,5.999,3,8,3   c2.409,0,4.436,1.688,4.902,4.001C14.65,6.958,16,8.313,16,10C16,11.654,14.654,13,13,13z M3.5,7C2.122,7,1,8.121,1,9.5   S2.122,12,3.5,12H13c1.103,0,2-0.897,2-2s-0.897-2-2-2c-0.147,0-0.297,0.017-0.428,0.041c-0.137,0.026-0.28-0.007-0.392-0.091   c-0.112-0.084-0.184-0.211-0.197-0.35C11.775,5.548,10.063,4,8,4C6.297,4,4.779,5.079,4.223,6.684   C4.138,6.928,3.882,7.07,3.629,7.005C3.606,7,3.54,7,3.5,7z"></path><path d="M13,8c-0.228,0-0.448-0.025-0.654-0.073c-0.27-0.063-0.436-0.333-0.372-0.602c0.062-0.268,0.331-0.435,0.601-0.372   C12.706,6.984,12.85,7,13,7c1.103,0,2-0.897,2-2s-0.897-2-2-2c-0.891,0-1.685,0.599-1.93,1.457   c-0.076,0.265-0.351,0.418-0.618,0.344c-0.265-0.076-0.419-0.353-0.343-0.618C10.476,2.897,11.665,2,13,2c1.654,0,3,1.346,3,3   S14.654,8,13,8z"></path></g></svg>