<?xml version="1.0" encoding="utf-8"?>
<!DOCTYPE svg PUBLIC "-//W3C//DTD SVG 1.0//EN" "http://www.w3.org/TR/2001/REC-SVG-20010904/DTD/svg10.dtd">
<svg    fill="#000000" xmlns="http://www.w3.org/2000/svg" xmlns:xlink="http://www.w3.org/1999/xlink" version="1.1" x="0px" y="0px" viewBox="0 0 16 16" style="enable-background:new 0 0 16 16;" xml:space="preserve"><g><path d="M13,11h-1.5c-0.276,0-0.5-0.224-0.5-0.5s0.224-0.5,0.5-0.5H13c1.103,0,2-0.897,2-2c0-1.103-0.897-2-2-2   c-0.147,0-0.297,0.017-0.428,0.042c-0.137,0.024-0.28-0.008-0.392-0.091c-0.112-0.084-0.184-0.211-0.197-0.35   C11.775,3.548,10.063,2,8,2C6.297,2,4.779,3.079,4.223,4.684C4.138,4.929,3.882,5.07,3.629,5.005C3.606,5,3.54,5,3.5,5   C2.122,5,1,6.122,1,7.5C1,8.879,2.122,10,3.5,10h1C4.776,10,5,10.224,5,10.5S4.776,11,4.5,11h-1C1.57,11,0,9.43,0,7.5   c0-1.902,1.525-3.454,3.416-3.499C4.203,2.191,5.999,1,8,1c2.409,0,4.436,1.688,4.902,4.001C14.65,4.965,16,6.313,16,8   C16,9.654,14.654,11,13,11z"></path><path d="M7.5,16c-0.032,0-0.063-0.003-0.095-0.009C7.17,15.945,7,15.739,7,15.5V13H5.5c-0.166,0-0.321-0.082-0.414-0.22   c-0.093-0.138-0.112-0.312-0.05-0.466l2-5c0.089-0.224,0.327-0.349,0.559-0.306C7.83,7.054,8,7.26,8,7.5V10h1.5   c0.166,0,0.321,0.082,0.414,0.22s0.111,0.312,0.05,0.466l-2,5C7.887,15.878,7.701,16,7.5,16z M6.238,12H7.5   C7.776,12,8,12.224,8,12.5v0.403L8.762,11H7.5C7.224,11,7,10.776,7,10.5v-0.403L6.238,12z"></path></g></svg>