<?xml version="1.0" encoding="utf-8"?>
<!DOCTYPE svg PUBLIC "-//W3C//DTD SVG 1.0//EN" "http://www.w3.org/TR/2001/REC-SVG-20010904/DTD/svg10.dtd">
<svg    fill="#000000" xmlns="http://www.w3.org/2000/svg" xmlns:xlink="http://www.w3.org/1999/xlink" version="1.1" x="0px" y="0px" viewBox="0 0 16 16" style="enable-background:new 0 0 16 16;" xml:space="preserve"><g><path d="M10.5,3.5c-0.128,0-0.256-0.049-0.354-0.146L8,1.207L5.854,3.354c-0.195,0.195-0.512,0.195-0.707,0s-0.195-0.512,0-0.707   l2.5-2.5c0.195-0.195,0.512-0.195,0.707,0l2.5,2.5c0.195,0.195,0.195,0.512,0,0.707C10.756,3.451,10.628,3.5,10.5,3.5z"></path><path d="M8,7C7.724,7,7.5,6.776,7.5,6.5v-6C7.5,0.224,7.724,0,8,0s0.5,0.224,0.5,0.5v6C8.5,6.776,8.276,7,8,7z"></path><path d="M15.5,16h-15C0.224,16,0,15.776,0,15.5v-7C0,8.224,0.224,8,0.5,8S1,8.224,1,8.5C1,9.327,1.897,10,3,10s2-0.673,2-1.5   C5,8.224,5.224,8,5.5,8S6,8.224,6,8.5C6,9.327,6.897,10,8,10c1.103,0,2-0.673,2-1.5C10,8.224,10.224,8,10.5,8S11,8.224,11,8.5   c0,0.827,0.897,1.5,2,1.5s2-0.673,2-1.5C15,8.224,15.224,8,15.5,8S16,8.224,16,8.5v7C16,15.776,15.776,16,15.5,16z M1,15h14v-4.638   C14.469,10.759,13.768,11,13,11c-1.042,0-1.962-0.445-2.5-1.119C9.962,10.555,9.042,11,8,11c-1.042,0-1.962-0.445-2.5-1.119   C4.962,10.555,4.042,11,3,11c-0.768,0-1.469-0.241-2-0.638V15z"></path></g></svg>