<svg enable-background="new 0 0 16 16" viewBox="0 0 16 16" xmlns="http://www.w3.org/2000/svg"><path d="m10.5 3.5c-.128 0-.256-.049-.354-.146l-2.146-2.147-2.146 2.147c-.195.195-.512.195-.707 0s-.195-.512 0-.707l2.5-2.5c.195-.195.512-.195.707 0l2.5 2.5c.195.195.195.512 0 .707-.098.097-.226.146-.354.146z"/><path d="m8 7c-.276 0-.5-.224-.5-.5v-6c0-.276.224-.5.5-.5s.5.224.5.5v6c0 .276-.224.5-.5.5z"/><path d="m15.5 16h-15c-.276 0-.5-.224-.5-.5v-7c0-.276.224-.5.5-.5s.5.224.5.5c0 .827.897 1.5 2 1.5s2-.673 2-1.5c0-.276.224-.5.5-.5s.5.224.5.5c0 .827.897 1.5 2 1.5s2-.673 2-1.5c0-.276.224-.5.5-.5s.5.224.5.5c0 .827.897 1.5 2 1.5s2-.673 2-1.5c0-.276.224-.5.5-.5s.5.224.5.5v7c0 .276-.224.5-.5.5zm-14.5-1h14v-4.638c-.531.397-1.232.638-2 .638-1.042 0-1.962-.445-2.5-1.119-.538.674-1.458 1.119-2.5 1.119s-1.962-.445-2.5-1.119c-.538.674-1.458 1.119-2.5 1.119-.768 0-1.469-.241-2-.638z"/></svg>