<?xml version="1.0" encoding="utf-8"?>
<!DOCTYPE svg PUBLIC "-//W3C//DTD SVG 1.0//EN" "http://www.w3.org/TR/2001/REC-SVG-20010904/DTD/svg10.dtd">
<svg    fill="#000000" xmlns="http://www.w3.org/2000/svg" xmlns:xlink="http://www.w3.org/1999/xlink" version="1.1" x="0px" y="0px" viewBox="0 0 16 16" style="enable-background:new 0 0 16 16;" xml:space="preserve"><path d="M13,11H3.5C1.57,11,0,9.43,0,7.5c0-1.902,1.525-3.454,3.416-3.499C4.203,2.191,5.999,1,8,1c2.409,0,4.436,1.688,4.902,4.001  C14.65,4.965,16,6.313,16,8C16,9.654,14.654,11,13,11z M3.5,5C2.122,5,1,6.122,1,7.5C1,8.879,2.122,10,3.5,10H13  c1.103,0,2-0.897,2-2c0-1.103-0.897-2-2-2c-0.147,0-0.297,0.017-0.428,0.042c-0.137,0.024-0.28-0.008-0.392-0.091  c-0.112-0.084-0.184-0.211-0.197-0.35C11.775,3.548,10.063,2,8,2C6.297,2,4.779,3.079,4.223,4.684  C4.138,4.929,3.882,5.07,3.629,5.005C3.606,5,3.54,5,3.5,5z"></path><path d="M8,16c-0.827,0-1.5-0.673-1.5-1.5c0-0.639,0.761-1.811,1.088-2.284c0.188-0.27,0.637-0.27,0.823,0  C8.738,12.689,9.5,13.861,9.5,14.5C9.5,15.327,8.827,16,8,16z M8,13.427c-0.288,0.485-0.496,0.921-0.5,1.074  C7.5,14.775,7.724,15,8,15c0.275,0,0.5-0.225,0.5-0.5C8.495,14.347,8.288,13.912,8,13.427z"></path><path d="M3.5,15C2.673,15,2,14.327,2,13.5S2.673,12,3.5,12S5,12.673,5,13.5S4.327,15,3.5,15z M3.5,13C3.224,13,3,13.225,3,13.5  S3.224,14,3.5,14S4,13.775,4,13.5S3.776,13,3.5,13z"></path><path d="M12.5,15c-0.827,0-1.5-0.673-1.5-1.5s0.673-1.5,1.5-1.5s1.5,0.673,1.5,1.5S13.327,15,12.5,15z M12.5,13  c-0.275,0-0.5,0.225-0.5,0.5s0.225,0.5,0.5,0.5s0.5-0.225,0.5-0.5S12.775,13,12.5,13z"></path><path d="M13,6c-0.228,0-0.448-0.025-0.654-0.073c-0.27-0.063-0.436-0.333-0.372-0.602c0.062-0.268,0.331-0.434,0.601-0.372  C12.706,4.984,12.85,5,13,5c0.948,0,1.745-0.664,1.949-1.551C14.804,3.483,14.653,3.5,14.5,3.5c-1.103,0-2-0.897-2-2  c0-0.153,0.018-0.303,0.051-0.448c-0.699,0.162-1.277,0.695-1.48,1.405c-0.076,0.265-0.351,0.416-0.618,0.344  c-0.265-0.076-0.419-0.353-0.343-0.618C10.476,0.897,11.665,0,13,0c0.159,0,0.306,0.012,0.452,0.037  c0.182,0.03,0.331,0.157,0.391,0.331s0.02,0.366-0.105,0.501C13.582,1.037,13.5,1.255,13.5,1.5c0,0.551,0.448,1,1,1  c0.244,0,0.463-0.082,0.63-0.237c0.135-0.125,0.327-0.165,0.501-0.106c0.174,0.059,0.301,0.208,0.332,0.39  C15.987,2.693,16,2.841,16,3C16,4.654,14.654,6,13,6z"></path></svg>