<?xml version="1.0" encoding="utf-8"?>
<!DOCTYPE svg PUBLIC "-//W3C//DTD SVG 1.0//EN" "http://www.w3.org/TR/2001/REC-SVG-20010904/DTD/svg10.dtd">
<svg    fill="#000000" xmlns="http://www.w3.org/2000/svg" xmlns:xlink="http://www.w3.org/1999/xlink" version="1.1" x="0px" y="0px" viewBox="0 0 16 16" style="enable-background:new 0 0 16 16;" xml:space="preserve"><g><path d="M4.5,16C4.224,16,4,15.776,4,15.5v-15C4,0.224,4.224,0,4.5,0S5,0.224,5,0.5v15C5,15.776,4.776,16,4.5,16z"></path><path d="M4.5,7C4.298,7,4.107,6.876,4.032,6.676C3.935,6.417,4.066,6.129,4.324,6.032L11.076,3.5L4.324,0.968   C4.066,0.871,3.935,0.583,4.032,0.324c0.097-0.259,0.385-0.388,0.644-0.292l8,3C12.871,3.105,13,3.292,13,3.5   s-0.129,0.395-0.324,0.468l-8,3C4.618,6.99,4.559,7,4.5,7z"></path><path d="M4.5,13c-0.202,0-0.393-0.124-0.468-0.324c-0.097-0.259,0.034-0.547,0.292-0.644L11.076,9.5L4.324,6.968   C4.066,6.871,3.935,6.583,4.032,6.324s0.385-0.389,0.644-0.292l8,3C12.871,9.105,13,9.292,13,9.5s-0.129,0.395-0.324,0.468l-8,3   C4.618,12.99,4.559,13,4.5,13z"></path></g></svg>