<svg enable-background="new 0 0 16 16" viewBox="0 0 16 16" xmlns="http://www.w3.org/2000/svg"><path d="m4.5 16c-.276 0-.5-.224-.5-.5v-15c0-.276.224-.5.5-.5s.5.224.5.5v15c0 .276-.224.5-.5.5z"/><path d="m4.5 7c-.202 0-.393-.124-.468-.324-.097-.259.034-.547.292-.644l6.752-2.532-6.752-2.532c-.258-.097-.389-.385-.292-.644s.385-.388.644-.292l8 3c.195.073.324.26.324.468s-.129.395-.324.468l-8 3c-.058.022-.117.032-.176.032z"/><path d="m4.5 13c-.202 0-.393-.124-.468-.324-.097-.259.034-.547.292-.644l6.752-2.532-6.752-2.532c-.258-.097-.389-.385-.292-.644s.385-.389.644-.292l8 3c.195.073.324.26.324.468s-.129.395-.324.468l-8 3c-.058.022-.117.032-.176.032z"/></svg>