<svg enable-background="new 0 0 16 16" viewBox="0 0 16 16" xmlns="http://www.w3.org/2000/svg"><path d="m8 4.997c-.762 0-1.524-.186-2.204-.559-.856-.47-1.884-.566-2.823-.268l-1.321.423c-.264.084-.544-.061-.628-.323-.085-.264.06-.545.324-.629l1.321-.422c1.198-.384 2.513-.258 3.608.343 1.063.584 2.384.583 3.446 0 1.097-.601 2.414-.727 3.607-.343l1.322.422c.263.084.408.365.324.628-.084.262-.361.41-.629.324l-1.322-.422c-.937-.3-1.965-.203-2.822.268-.68.372-1.441.558-2.203.558z"/><path d="m8 7.997c-.762 0-1.524-.186-2.204-.559-.856-.47-1.884-.566-2.823-.268l-1.321.423c-.264.083-.544-.061-.628-.323-.085-.264.06-.545.324-.629l1.321-.422c1.197-.385 2.512-.259 3.608.343 1.063.584 2.384.583 3.446 0 1.097-.601 2.414-.725 3.607-.343l1.322.422c.263.084.408.365.324.628s-.361.41-.629.324l-1.322-.422c-.937-.3-1.965-.203-2.822.268-.68.372-1.441.558-2.203.558z"/><path d="m8 10.997c-.762 0-1.524-.186-2.204-.559-.857-.469-1.886-.568-2.822-.266l-1.321.422c-.264.081-.544-.062-.628-.324-.084-.264.061-.545.324-.629l1.321-.422c1.196-.384 2.51-.259 3.607.343 1.063.582 2.384.582 3.446 0 1.099-.602 2.411-.729 3.608-.342l1.32.421c.263.084.408.365.324.629-.085.262-.363.406-.629.324l-1.321-.422c-.937-.303-1.965-.203-2.822.267-.68.372-1.441.558-2.203.558z"/><path d="m8 13.997c-.762 0-1.524-.186-2.204-.559-.858-.47-1.886-.567-2.823-.267l-1.321.422c-.264.08-.544-.062-.628-.324-.084-.264.061-.545.324-.629l1.321-.422c1.196-.381 2.512-.258 3.608.343 1.063.583 2.385.582 3.446 0 1.099-.602 2.411-.728 3.608-.342l1.32.421c.263.084.408.365.324.629-.085.262-.363.406-.629.324l-1.321-.422c-.937-.302-1.965-.203-2.822.267-.68.373-1.441.559-2.203.559z"/></svg>