<?xml version="1.0" encoding="utf-8"?>
<!DOCTYPE svg PUBLIC "-//W3C//DTD SVG 1.0//EN" "http://www.w3.org/TR/2001/REC-SVG-20010904/DTD/svg10.dtd">
<svg    fill="#000000" xmlns="http://www.w3.org/2000/svg" xmlns:xlink="http://www.w3.org/1999/xlink" version="1.1" x="0px" y="0px" viewBox="0 0 16 16" style="enable-background:new 0 0 16 16;" xml:space="preserve"><g><path d="M8,4.997c-0.762,0-1.524-0.186-2.204-0.559c-0.856-0.47-1.884-0.566-2.823-0.268L1.652,4.593   C1.388,4.677,1.108,4.532,1.024,4.27C0.939,4.006,1.084,3.725,1.348,3.641l1.321-0.422c1.198-0.384,2.513-0.258,3.608,0.343   c1.063,0.584,2.384,0.583,3.446,0c1.097-0.601,2.414-0.727,3.607-0.343l1.322,0.422c0.263,0.084,0.408,0.365,0.324,0.628   c-0.084,0.262-0.361,0.41-0.629,0.324l-1.322-0.422c-0.937-0.3-1.965-0.203-2.822,0.268C9.523,4.811,8.762,4.997,8,4.997z"></path><path d="M8,7.997c-0.762,0-1.524-0.186-2.204-0.559c-0.856-0.47-1.884-0.566-2.823-0.268L1.652,7.593   C1.388,7.676,1.108,7.532,1.024,7.27C0.939,7.006,1.084,6.725,1.348,6.641l1.321-0.422C3.866,5.834,5.181,5.96,6.277,6.562   c1.063,0.584,2.384,0.583,3.446,0c1.097-0.601,2.414-0.725,3.607-0.343l1.322,0.422c0.263,0.084,0.408,0.365,0.324,0.628   c-0.084,0.263-0.361,0.41-0.629,0.324l-1.322-0.422c-0.937-0.3-1.965-0.203-2.822,0.268C9.523,7.811,8.762,7.997,8,7.997z"></path><path d="M8,10.997c-0.762,0-1.524-0.186-2.204-0.559C4.939,9.969,3.91,9.87,2.974,10.172l-1.321,0.422   c-0.264,0.081-0.544-0.062-0.628-0.324c-0.084-0.264,0.061-0.545,0.324-0.629l1.321-0.422C3.866,8.835,5.18,8.96,6.277,9.562   c1.063,0.582,2.384,0.582,3.446,0c1.099-0.602,2.411-0.729,3.608-0.342l1.32,0.421c0.263,0.084,0.408,0.365,0.324,0.629   c-0.085,0.262-0.363,0.406-0.629,0.324l-1.321-0.422c-0.937-0.303-1.965-0.203-2.822,0.267C9.523,10.811,8.762,10.997,8,10.997z"></path><path d="M8,13.997c-0.762,0-1.524-0.186-2.204-0.559c-0.858-0.47-1.886-0.567-2.823-0.267l-1.321,0.422   c-0.264,0.08-0.544-0.062-0.628-0.324c-0.084-0.264,0.061-0.545,0.324-0.629l1.321-0.422c1.196-0.381,2.512-0.258,3.608,0.343   c1.063,0.583,2.385,0.582,3.446,0c1.099-0.602,2.411-0.728,3.608-0.342l1.32,0.421c0.263,0.084,0.408,0.365,0.324,0.629   c-0.085,0.262-0.363,0.406-0.629,0.324l-1.321-0.422c-0.937-0.302-1.965-0.203-2.822,0.267C9.523,13.811,8.762,13.997,8,13.997z"></path></g></svg>