<?xml version="1.0" encoding="utf-8"?>
<!DOCTYPE svg PUBLIC "-//W3C//DTD SVG 1.0//EN" "http://www.w3.org/TR/2001/REC-SVG-20010904/DTD/svg10.dtd">
<svg    fill="#000000" xmlns="http://www.w3.org/2000/svg" xmlns:xlink="http://www.w3.org/1999/xlink" version="1.1" x="0px" y="0px" viewBox="0 0 16 16" style="enable-background:new 0 0 16 16;" xml:space="preserve"><g><path d="M8,11c-1.654,0-3-1.346-3-3s1.346-3,3-3s3,1.346,3,3S9.654,11,8,11z M8,6C6.897,6,6,6.897,6,8c0,1.103,0.897,2,2,2   c1.103,0,2-0.897,2-2C10,6.897,9.103,6,8,6z"></path><path d="M8,14c-3.309,0-6-2.691-6-6c0-4.411,3.589-8,8-8c0.235,0,0.438,0.164,0.488,0.393c0.051,0.23-0.066,0.463-0.279,0.562   C10.2,0.958,9.179,1.451,8.434,2.749C8.295,2.988,7.99,3.069,7.751,2.934C7.512,2.796,7.429,2.49,7.566,2.251   c0.238-0.415,0.5-0.762,0.758-1.048C5.271,1.956,3,4.718,3,8c0,2.757,2.243,5,5,5c0.276,0,0.5,0.224,0.5,0.5S8.276,14,8,14z"></path><path d="M6,16c-0.189,0-0.371-0.108-0.455-0.291c-0.115-0.25-0.006-0.546,0.243-0.662l0,0c0.01-0.005,1.031-0.498,1.777-1.796   c0.138-0.241,0.444-0.322,0.683-0.185c0.239,0.138,0.322,0.443,0.185,0.683c-0.914,1.589-2.172,2.181-2.225,2.205   C6.141,15.985,6.07,16,6,16z"></path><path d="M6,16c-0.276,0-0.5-0.224-0.5-0.5S5.724,15,6,15c3.859,0,7-3.141,7-7c0-2.757-2.243-5-5-5C7.724,3,7.5,2.776,7.5,2.5   S7.724,2,8,2c3.309,0,6,2.691,6,6C14,12.411,10.411,16,6,16z"></path></g></svg>