<svg enable-background="new 0 0 16 16" viewBox="0 0 16 16" xmlns="http://www.w3.org/2000/svg"><path d="m8 11c-1.654 0-3-1.346-3-3s1.346-3 3-3 3 1.346 3 3-1.346 3-3 3zm0-5c-1.103 0-2 .897-2 2s.897 2 2 2 2-.897 2-2-.897-2-2-2z"/><path d="m8 14c-3.309 0-6-2.691-6-6 0-4.411 3.589-8 8-8 .235 0 .438.164.488.393.051.23-.066.463-.279.562-.009.003-1.03.496-1.775 1.794-.139.239-.444.32-.683.185-.239-.138-.322-.444-.185-.683.238-.415.5-.762.758-1.048-3.053.753-5.324 3.515-5.324 6.797 0 2.757 2.243 5 5 5 .276 0 .5.224.5.5s-.224.5-.5.5z"/><path d="m6 16c-.189 0-.371-.108-.455-.291-.115-.25-.006-.546.243-.662.01-.005 1.031-.498 1.777-1.796.138-.241.444-.322.683-.185.239.138.322.443.185.683-.914 1.589-2.172 2.181-2.225 2.205-.067.031-.138.046-.208.046z"/><path d="m6 16c-.276 0-.5-.224-.5-.5s.224-.5.5-.5c3.859 0 7-3.141 7-7 0-2.757-2.243-5-5-5-.276 0-.5-.224-.5-.5s.224-.5.5-.5c3.309 0 6 2.691 6 6 0 4.411-3.589 8-8 8z"/></svg>