<svg viewBox="0 0 24 24" xmlns="http://www.w3.org/2000/svg"><path d="m13.0392019 21.7081936c-.9451393.5733322-2.1765998.272732-2.7505153-.6713993-3.5267369-5.801484-5.2886866-9.7497052-5.2886866-12.04423269 0-3.86188514 3.13400675-6.99256161 7-6.99256161 3.8659932 0 7 3.13067647 7 6.99256161 0 2.29452819-1.7619508 6.24275119-5.28869 12.04423819-.166837.274447-.3973691.5047341-.6721081.6713938zm-1.0317556-9.7081936c1.6586167 0 3.0031913-1.3431458 3.0031913-3 0-1.65685425-1.3445746-3-3.0031913-3s-3.00319127 1.34314575-3.00319127 3c0 1.6568542 1.34457457 3 3.00319127 3z"/></svg>