<svg enable-background="new 0 0 16 16" viewBox="0 0 16 16" xmlns="http://www.w3.org/2000/svg"><path d="m6 16c-1.654 0-3-1.346-3-3 0-.864.361-1.666 1-2.236v-8.764c0-1.103.897-2 2-2s2 .897 2 2v8.764c.639.57 1 1.372 1 2.236 0 1.654-1.346 3-3 3zm0-15c-.551 0-1 .449-1 1v9c0 .157-.074.305-.199.399-.509.384-.801.967-.801 1.601 0 1.103.897 2 2 2s2-.897 2-2c0-.634-.292-1.217-.801-1.601-.125-.094-.199-.242-.199-.399v-9c0-.551-.449-1-1-1zm-1.5 10h.01z"/><path d="m7.5 6h-1c-.276 0-.5-.224-.5-.5s.224-.5.5-.5h1c.276 0 .5.224.5.5s-.224.5-.5.5z"/><path d="m7.5 9h-3c-.276 0-.5-.224-.5-.5s.224-.5.5-.5h3c.276 0 .5.224.5.5s-.224.5-.5.5z"/><path d="m14.5 7h-4c-.276 0-.5-.224-.5-.5s.224-.5.5-.5h4c.276 0 .5.224.5.5s-.224.5-.5.5z"/></svg>