<?xml version="1.0" encoding="utf-8"?>
<!DOCTYPE svg PUBLIC "-//W3C//DTD SVG 1.0//EN" "http://www.w3.org/TR/2001/REC-SVG-20010904/DTD/svg10.dtd">
<svg    fill="#000000" xmlns="http://www.w3.org/2000/svg" xmlns:xlink="http://www.w3.org/1999/xlink" version="1.1" x="0px" y="0px" viewBox="0 0 16 16" style="enable-background:new 0 0 16 16;" xml:space="preserve"><g><path d="M4.5,16C2.019,16,0,13.981,0,11.5S2.019,7,4.5,7S9,9.019,9,11.5S6.981,16,4.5,16z M4.5,8C2.57,8,1,9.57,1,11.5   S2.57,15,4.5,15S8,13.43,8,11.5S6.43,8,4.5,8z"></path><path d="M7.328,14.828c-0.128,0-0.256-0.049-0.354-0.146c-0.195-0.195-0.195-0.512,0-0.707l5.003-5.002l-1.765,0.196   c-0.191,0.019-0.375-0.067-0.477-0.228C9.634,8.78,9.631,8.576,9.729,8.413l3.357-5.544L8.281,5.572   c-0.17,0.097-0.38,0.083-0.539-0.031C7.584,5.426,7.507,5.23,7.546,5.038l0.383-1.916L2.025,9.025   c-0.195,0.195-0.512,0.195-0.707,0s-0.195-0.512,0-0.707L8.39,1.248c0.155-0.156,0.393-0.191,0.59-0.087   c0.194,0.104,0.297,0.323,0.254,0.539L8.74,4.167l5.515-3.102c0.198-0.112,0.446-0.076,0.604,0.088   c0.158,0.163,0.186,0.412,0.068,0.606L11.11,8.062l2.173-0.241c0.212-0.019,0.415,0.089,0.506,0.28   c0.093,0.191,0.054,0.42-0.097,0.57l-6.011,6.01C7.584,14.779,7.456,14.828,7.328,14.828z"></path></g></svg>