<svg enable-background="new 0 0 16 16" viewBox="0 0 16 16" xmlns="http://www.w3.org/2000/svg"><path d="m4.5 16c-2.481 0-4.5-2.019-4.5-4.5s2.019-4.5 4.5-4.5 4.5 2.019 4.5 4.5-2.019 4.5-4.5 4.5zm0-8c-1.93 0-3.5 1.57-3.5 3.5s1.57 3.5 3.5 3.5 3.5-1.57 3.5-3.5-1.57-3.5-3.5-3.5z"/><path d="m7.328 14.828c-.128 0-.256-.049-.354-.146-.195-.195-.195-.512 0-.707l5.003-5.002-1.765.196c-.191.019-.375-.067-.477-.228-.101-.161-.104-.365-.006-.528l3.357-5.544-4.805 2.703c-.17.097-.38.083-.539-.031-.158-.115-.235-.311-.196-.503l.383-1.916-5.904 5.903c-.195.195-.512.195-.707 0s-.195-.512 0-.707l7.072-7.07c.155-.156.393-.191.59-.087.194.104.297.323.254.539l-.494 2.467 5.515-3.102c.198-.112.446-.076.604.088.158.163.186.412.068.606l-3.817 6.303 2.173-.241c.212-.019.415.089.506.28.093.191.054.42-.097.57l-6.011 6.01c-.097.098-.225.147-.353.147z"/></svg>