<?xml version="1.0" encoding="utf-8"?>
<!DOCTYPE svg PUBLIC "-//W3C//DTD SVG 1.0//EN" "http://www.w3.org/TR/2001/REC-SVG-20010904/DTD/svg10.dtd">
<svg    fill="#000000" xmlns="http://www.w3.org/2000/svg" xmlns:xlink="http://www.w3.org/1999/xlink" version="1.1" x="0px" y="0px" viewBox="0 0 16 16" style="enable-background:new 0 0 16 16;" xml:space="preserve"><g><path d="M2.521,12c-0.166,0-0.328-0.082-0.423-0.232C1.379,10.635,1,9.332,1,8c0-3.86,3.14-7,7-7c0.217,0,0.423,0.011,0.64,0.032   C8.779,1.046,8.906,1.118,8.99,1.23c0.084,0.112,0.117,0.254,0.091,0.391C9.026,1.916,9,2.203,9,2.5C9,4.981,11.019,7,13.5,7   c0.3,0,0.587-0.026,0.877-0.081c0.139-0.026,0.279,0.006,0.392,0.09s0.185,0.21,0.198,0.35C14.989,7.576,15,7.782,15,8   c0,1.332-0.379,2.635-1.097,3.768c-0.148,0.234-0.457,0.3-0.69,0.155c-0.233-0.148-0.303-0.457-0.155-0.69   C13.674,10.26,14,9.142,14,8c0-0.007,0-0.014,0-0.021C13.835,7.993,13.669,8,13.5,8C10.468,8,8,5.533,8,2.5   C8,2.332,8.007,2.166,8.021,2C8.015,2,8.007,2,8,2C4.691,2,2,4.691,2,8c0,1.143,0.326,2.26,0.942,3.232   c0.148,0.233,0.079,0.542-0.155,0.689C2.705,11.975,2.612,12,2.521,12z"></path><g><path d="M15.5,14H10c-0.133,0-0.26-0.053-0.354-0.146L8,12.207l-1.646,1.646C6.26,13.947,6.133,14,6,14H0.5    C0.224,14,0,13.776,0,13.5S0.224,13,0.5,13h5.293l1.854-1.854c0.195-0.195,0.512-0.195,0.707,0L10.207,13H15.5    c0.276,0,0.5,0.224,0.5,0.5S15.776,14,15.5,14z"></path></g></g></svg>