<svg enable-background="new 0 0 16 16" viewBox="0 0 16 16" xmlns="http://www.w3.org/2000/svg"><path d="m2.521 12c-.166 0-.328-.082-.423-.232-.719-1.133-1.098-2.436-1.098-3.768 0-3.86 3.14-7 7-7 .217 0 .423.011.64.032.139.014.266.086.35.198s.117.254.091.391c-.055.295-.081.582-.081.879 0 2.481 2.019 4.5 4.5 4.5.3 0 .587-.026.877-.081.139-.026.279.006.392.09s.185.21.198.35c.022.217.033.423.033.641 0 1.332-.379 2.635-1.097 3.768-.148.234-.457.3-.69.155-.233-.148-.303-.457-.155-.69.616-.973.942-2.091.942-3.233 0-.007 0-.014 0-.021-.165.014-.331.021-.5.021-3.032 0-5.5-2.467-5.5-5.5 0-.168.007-.334.021-.5-.006 0-.014 0-.021 0-3.309 0-6 2.691-6 6 0 1.143.326 2.26.942 3.232.148.233.079.542-.155.689-.082.054-.175.079-.266.079z"/><path d="m8 16c-.128 0-.256-.049-.354-.146l-1.853-1.854h-5.293c-.276 0-.5-.224-.5-.5s.224-.5.5-.5h5.5c.133 0 .26.053.354.146l1.646 1.647 1.646-1.646c.094-.094.221-.147.354-.147h5.5c.276 0 .5.224.5.5s-.224.5-.5.5h-5.293l-1.854 1.854c-.097.097-.225.146-.353.146z"/></svg>