<svg enable-background="new 0 0 16 16" viewBox="0 0 16 16" xmlns="http://www.w3.org/2000/svg"><path d="m8 15c-3.86 0-7-3.141-7-7 0-3.86 3.14-7 7-7 2.527 0 4.871 1.374 6.115 3.585.136.241.051.545-.19.681-.237.134-.545.051-.681-.19-1.067-1.898-3.077-3.076-5.244-3.076-3.309 0-6 2.691-6 6s2.691 6 6 6c1.131 0 2.234-.319 3.193-.923.234-.147.543-.077.689.156.147.233.077.543-.156.689-1.118.706-2.407 1.078-3.726 1.078z"/><path d="m14.5 12h-5.5c-1.103 0-2-.897-2-2 0-1.159 1.046-2.094 2.167-1.993.416-1.174 1.553-2.007 2.833-2.007 1.654 0 3 1.346 3 3 0 .031-.001.062-.002.094.595.212 1.002.762 1.002 1.406 0 .827-.673 1.5-1.5 1.5zm-5.5-3c-.552 0-1 .448-1 1s.448 1 1 1h5.5c.275 0 .5-.225.5-.5 0-.228-.153-.421-.362-.48-.297.106-.688-.166-.688-.51 0-.001 0-.001 0-.002v-.001c0-.031.003-.07.009-.1.024-.131.041-.268.041-.407 0-1.103-.897-2-2-2-.974 0-1.823.722-1.976 1.679-.024.152-.118.285-.253.359s-.298.081-.439.021c-.09-.039-.201-.059-.332-.059z"/></svg>