<?xml version="1.0" encoding="utf-8"?>
<!DOCTYPE svg PUBLIC "-//W3C//DTD SVG 1.0//EN" "http://www.w3.org/TR/2001/REC-SVG-20010904/DTD/svg10.dtd">
<svg    fill="#000000" xmlns="http://www.w3.org/2000/svg" xmlns:xlink="http://www.w3.org/1999/xlink" version="1.1" x="0px" y="0px" viewBox="0 0 16 16" style="enable-background:new 0 0 16 16;" xml:space="preserve"><g><path d="M8,15c-3.86,0-7-3.141-7-7c0-3.86,3.14-7,7-7c2.527,0,4.871,1.374,6.115,3.585c0.136,0.241,0.051,0.545-0.19,0.681   c-0.237,0.134-0.545,0.051-0.681-0.19C12.177,3.178,10.167,2,8,2C4.691,2,2,4.691,2,8s2.691,6,6,6c1.131,0,2.234-0.319,3.193-0.923   c0.234-0.147,0.543-0.077,0.689,0.156c0.147,0.233,0.077,0.543-0.156,0.689C10.608,14.628,9.319,15,8,15z"></path><path d="M14.5,12H9c-1.103,0-2-0.897-2-2c0-1.159,1.046-2.094,2.167-1.993C9.583,6.833,10.72,6,12,6c1.654,0,3,1.346,3,3   c0,0.031-0.001,0.062-0.002,0.094C15.593,9.306,16,9.856,16,10.5C16,11.327,15.327,12,14.5,12z M9,9c-0.552,0-1,0.448-1,1   s0.448,1,1,1h5.5c0.275,0,0.5-0.225,0.5-0.5c0-0.228-0.153-0.421-0.362-0.48c-0.297,0.106-0.688-0.166-0.688-0.51   c0-0.001,0-0.001,0-0.002l0,0V9.507l0,0c0-0.031,0.003-0.07,0.009-0.1C13.983,9.276,14,9.139,14,9c0-1.103-0.897-2-2-2   c-0.974,0-1.823,0.722-1.976,1.679C10,8.831,9.906,8.964,9.771,9.038C9.636,9.112,9.473,9.119,9.332,9.059C9.242,9.02,9.131,9,9,9z   "></path></g></svg>