<?xml version="1.0" encoding="utf-8"?>
<!DOCTYPE svg PUBLIC "-//W3C//DTD SVG 1.0//EN" "http://www.w3.org/TR/2001/REC-SVG-20010904/DTD/svg10.dtd">
<svg    fill="#000000" xmlns="http://www.w3.org/2000/svg" xmlns:xlink="http://www.w3.org/1999/xlink" version="1.1" x="0px" y="0px" viewBox="0 0 16 16" style="enable-background:new 0 0 16 16;" xml:space="preserve"><g><path d="M7.5,16C3.364,16,0,12.636,0,8.5S3.364,1,7.5,1c0.234,0,0.467,0.011,0.701,0.045c0.205,0.03,0.37,0.182,0.416,0.384   S8.58,1.839,8.409,1.955c-0.521,0.35-0.996,0.812-1.374,1.337C6.874,3.516,6.562,3.566,6.338,3.406   C6.114,3.245,6.063,2.932,6.224,2.708c0.17-0.236,0.354-0.459,0.55-0.668C3.53,2.402,1,5.161,1,8.5C1,12.084,3.916,15,7.5,15   c1.826,0,3.519-0.744,4.731-2.039c-1.1,0.116-2.299-0.05-3.333-0.503c-0.253-0.111-0.367-0.406-0.257-0.659   c0.11-0.252,0.408-0.364,0.659-0.257c1.255,0.551,2.774,0.594,3.99,0.157c0.197-0.071,0.423-0.009,0.557,0.155   c0.134,0.165,0.149,0.396,0.038,0.577C12.513,14.666,10.125,16,7.5,16z"></path><path d="M13.5,11H6c-1.654,0-3-1.346-3-3s1.346-3,3-3c0.013,0,0.026,0,0.039,0C6.751,3.775,8.075,3,9.5,3   c1.844,0,3.427,1.259,3.871,3.003C14.79,5.936,16,7.079,16,8.5C16,9.879,14.879,11,13.5,11z M6,6C4.897,6,4,6.897,4,8   c0,1.103,0.897,2,2,2h7.5c0.827,0,1.5-0.673,1.5-1.5S14.327,7,13.5,7c-0.146,0-0.277,0.017-0.39,0.05   c-0.141,0.042-0.293,0.019-0.416-0.062c-0.122-0.081-0.203-0.211-0.221-0.357C12.291,5.131,11.013,4,9.5,4   C8.345,4,7.278,4.68,6.782,5.733C6.693,5.923,6.501,6.04,6.284,6.018C6.189,6.009,6.094,6,6,6z"></path></g></svg>