<svg enable-background="new 0 0 16 16" viewBox="0 0 16 16" xmlns="http://www.w3.org/2000/svg"><path d="m7.5 16c-4.136 0-7.5-3.364-7.5-7.5s3.364-7.5 7.5-7.5c.234 0 .467.011.701.045.205.03.37.182.416.384s-.037.41-.208.526c-.521.35-.996.812-1.374 1.337-.161.224-.473.274-.697.114-.224-.161-.275-.474-.114-.698.17-.236.354-.459.55-.668-3.244.362-5.774 3.121-5.774 6.46 0 3.584 2.916 6.5 6.5 6.5 1.826 0 3.519-.744 4.731-2.039-1.1.116-2.299-.05-3.333-.503-.253-.111-.367-.406-.257-.659.11-.252.408-.364.659-.257 1.255.551 2.774.594 3.99.157.197-.071.423-.009.557.155.134.165.149.396.038.577-1.372 2.235-3.76 3.569-6.385 3.569z"/><path d="m13.5 11h-7.5c-1.654 0-3-1.346-3-3s1.346-3 3-3h.039c.712-1.225 2.036-2 3.461-2 1.844 0 3.427 1.259 3.871 3.003 1.419-.067 2.629 1.076 2.629 2.497 0 1.379-1.121 2.5-2.5 2.5zm-7.5-5c-1.103 0-2 .897-2 2s.897 2 2 2h7.5c.827 0 1.5-.673 1.5-1.5s-.673-1.5-1.5-1.5c-.146 0-.277.017-.39.05-.141.042-.293.019-.416-.062-.122-.081-.203-.211-.221-.357-.182-1.5-1.46-2.631-2.973-2.631-1.155 0-2.222.68-2.718 1.733-.089.19-.281.307-.498.285-.095-.009-.19-.018-.284-.018z"/></svg>