<?xml version="1.0" encoding="utf-8"?>
<!DOCTYPE svg PUBLIC "-//W3C//DTD SVG 1.0//EN" "http://www.w3.org/TR/2001/REC-SVG-20010904/DTD/svg10.dtd">
<svg    fill="#000000" xmlns="http://www.w3.org/2000/svg" xmlns:xlink="http://www.w3.org/1999/xlink" version="1.1" x="0px" y="0px" viewBox="0 0 16 16" style="enable-background:new 0 0 16 16;" xml:space="preserve"><g><path d="M10.5,14H3c-1.654,0-3-1.346-3-3c0-1.667,1.33-3.002,3.039-3C3.751,6.775,5.075,6,6.5,6c1.844,0,3.426,1.259,3.871,3.003   C10.413,9.001,10.456,9,10.5,9c1.379,0,2.5,1.121,2.5,2.5S11.879,14,10.5,14z M3,9c-1.103,0-2,0.897-2,2s0.897,2,2,2h7.5   c0.827,0,1.5-0.673,1.5-1.5S11.327,10,10.5,10c-0.147,0-0.277,0.017-0.387,0.05c-0.142,0.041-0.294,0.021-0.418-0.062   c-0.123-0.08-0.204-0.212-0.222-0.357C9.291,8.131,8.013,7,6.5,7C5.345,7,4.278,7.68,3.782,8.732   c-0.089,0.19-0.283,0.294-0.497,0.285C3.19,9.009,3.095,9,3,9z"></path><path d="M14.27,10.65c-0.172,0-0.339-0.089-0.433-0.249c-0.139-0.238-0.058-0.544,0.182-0.684C14.633,9.36,15,8.718,15,8   c0-1.103-0.897-2-2-2c-0.147,0-0.297,0.017-0.428,0.042c-0.137,0.024-0.28-0.008-0.392-0.091c-0.112-0.084-0.184-0.211-0.197-0.35   C11.775,3.548,10.063,2,8,2C6.297,2,4.779,3.079,4.223,4.684C4.138,4.929,3.882,5.07,3.629,5.005C3.606,5,3.54,5,3.5,5   C2.187,5,1.12,5.984,1.019,7.289C0.998,7.556,0.786,7.767,0.5,7.754C0.232,7.744,0.02,7.528,0.02,7.26   c0.141-1.851,1.594-3.217,3.396-3.259C4.203,2.191,5.999,1,8,1c2.409,0,4.436,1.688,4.902,4.001C14.65,4.965,16,6.313,16,8   c0,1.062-0.566,2.052-1.479,2.583C14.441,10.629,14.355,10.65,14.27,10.65z"></path></g></svg>