<svg enable-background="new 0 0 16 16" viewBox="0 0 16 16" xmlns="http://www.w3.org/2000/svg"><path d="m10.5 14h-7.5c-1.654 0-3-1.346-3-3 0-1.667 1.33-3.002 3.039-3 .712-1.225 2.036-2 3.461-2 1.844 0 3.426 1.259 3.871 3.003.042-.002.085-.003.129-.003 1.379 0 2.5 1.121 2.5 2.5s-1.121 2.5-2.5 2.5zm-7.5-5c-1.103 0-2 .897-2 2s.897 2 2 2h7.5c.827 0 1.5-.673 1.5-1.5s-.673-1.5-1.5-1.5c-.147 0-.277.017-.387.05-.142.041-.294.021-.418-.062-.123-.08-.204-.212-.222-.357-.182-1.5-1.46-2.631-2.973-2.631-1.155 0-2.222.68-2.718 1.732-.089.19-.283.294-.497.285-.095-.008-.19-.017-.285-.017z"/><path d="m14.27 10.65c-.172 0-.339-.089-.433-.249-.139-.238-.058-.544.182-.684.614-.357.981-.999.981-1.717 0-1.103-.897-2-2-2-.147 0-.297.017-.428.042-.137.024-.28-.008-.392-.091-.112-.084-.184-.211-.197-.35-.208-2.053-1.92-3.601-3.983-3.601-1.703 0-3.221 1.079-3.777 2.684-.085.245-.341.386-.594.321-.023-.005-.089-.005-.129-.005-1.313 0-2.38.984-2.481 2.289-.021.267-.233.478-.519.465-.268-.01-.48-.226-.48-.494.141-1.851 1.594-3.217 3.396-3.259.787-1.81 2.583-3.001 4.584-3.001 2.409 0 4.436 1.688 4.902 4.001 1.748-.036 3.098 1.312 3.098 2.999 0 1.062-.566 2.052-1.479 2.583-.08.046-.166.067-.251.067z"/></svg>