<svg enable-background="new 0 0 16 16" viewBox="0 0 16 16" xmlns="http://www.w3.org/2000/svg"><path d="m10.5 12h-7.5c-1.654 0-3-1.346-3-3 0-1.667 1.394-3.054 3.039-3 .712-1.225 2.036-2 3.461-2 1.844 0 3.427 1.259 3.871 3.003 1.43-.066 2.629 1.075 2.629 2.497 0 1.379-1.121 2.5-2.5 2.5zm-7.5-5c-1.103 0-2 .897-2 2s.897 2 2 2h7.5c.827 0 1.5-.673 1.5-1.5s-.673-1.5-1.5-1.5c-.146 0-.277.017-.39.05-.14.042-.293.019-.416-.063-.122-.08-.203-.211-.22-.357-.183-1.499-1.461-2.63-2.974-2.63-1.155 0-2.222.68-2.718 1.733-.089.19-.287.304-.499.285-.094-.009-.189-.018-.283-.018z"/><path d="m8 15c-1.319 0-2.608-.372-3.727-1.077-.233-.146-.304-.456-.156-.689.147-.232.456-.304.689-.156.959.603 2.064.922 3.194.922 3.309 0 6-2.691 6-6s-2.691-6-6-6c-2.167 0-4.177 1.178-5.245 3.075-.136.24-.44.326-.681.19-.241-.135-.326-.44-.19-.681 1.244-2.21 3.588-3.584 6.116-3.584 3.859 0 7 3.14 7 7 0 3.859-3.141 7-7 7z"/></svg>