<?xml version="1.0" encoding="utf-8"?>
<!DOCTYPE svg PUBLIC "-//W3C//DTD SVG 1.0//EN" "http://www.w3.org/TR/2001/REC-SVG-20010904/DTD/svg10.dtd">
<svg    fill="#000000" xmlns="http://www.w3.org/2000/svg" xmlns:xlink="http://www.w3.org/1999/xlink" version="1.1" x="0px" y="0px" viewBox="0 0 16 16" style="enable-background:new 0 0 16 16;" xml:space="preserve"><g><path d="M10.5,12H3c-1.654,0-3-1.346-3-3c0-1.667,1.394-3.054,3.039-3C3.751,4.775,5.075,4,6.5,4c1.844,0,3.427,1.259,3.871,3.003   C11.801,6.937,13,8.078,13,9.5C13,10.879,11.879,12,10.5,12z M3,7C1.897,7,1,7.897,1,9c0,1.103,0.897,2,2,2h7.5   c0.827,0,1.5-0.673,1.5-1.5S11.327,8,10.5,8c-0.146,0-0.277,0.017-0.39,0.05C9.97,8.092,9.817,8.069,9.694,7.987   C9.572,7.907,9.491,7.776,9.474,7.63C9.291,6.131,8.013,5,6.5,5C5.345,5,4.278,5.68,3.782,6.733   c-0.089,0.19-0.287,0.304-0.499,0.285C3.189,7.009,3.094,7,3,7z"></path><path d="M8,15c-1.319,0-2.608-0.372-3.727-1.077c-0.233-0.146-0.304-0.456-0.156-0.689c0.147-0.232,0.456-0.304,0.689-0.156   C5.765,13.681,6.87,14,8,14c3.309,0,6-2.691,6-6s-2.691-6-6-6C5.833,2,3.823,3.178,2.755,5.075c-0.136,0.24-0.44,0.326-0.681,0.19   c-0.241-0.135-0.326-0.44-0.19-0.681C3.128,2.374,5.472,1,8,1c3.859,0,7,3.14,7,7C15,11.859,11.859,15,8,15z"></path></g></svg>