<svg enable-background="new 0 0 16 16" viewBox="0 0 16 16" xmlns="http://www.w3.org/2000/svg"><path d="m7.5 16c-4.136 0-7.5-3.364-7.5-7.5s3.364-7.5 7.5-7.5c.234 0 .467.011.701.045.204.03.37.182.416.383s-.036.41-.207.526c-1.107.75-1.901 1.877-2.236 3.171-.069.267-.343.43-.61.359-.267-.069-.427-.342-.358-.609.277-1.07.819-2.042 1.568-2.834-3.244.361-5.774 3.12-5.774 6.459 0 3.584 2.916 6.5 6.5 6.5 1.826 0 3.519-.744 4.731-2.039-.239.025-.483.039-.731.039-1.597 0-3.122-.578-4.293-1.628-.206-.184-.223-.5-.039-.706.186-.206.502-.223.706-.038.987.885 2.275 1.372 3.626 1.372.634 0 1.236-.102 1.791-.301.197-.071.423-.009.557.155.134.165.149.396.038.577-1.373 2.235-3.761 3.569-6.386 3.569z"/><path d="m12.5 10h-5.5c-1.103 0-2-.897-2-2s.897-2 2-2c.057 0 .113.002.167.006.416-1.173 1.554-2.006 2.833-2.006 1.654 0 3 1.346 3 3 0 .031-.001.062-.002.094.595.212 1.002.762 1.002 1.406 0 .827-.673 1.5-1.5 1.5zm-5.5-3c-.551 0-1 .449-1 1 0 .552.449 1 1 1h5.5c.275 0 .5-.225.5-.5 0-.228-.153-.421-.362-.48-.297.106-.687-.166-.688-.51v-.001s0 0 0-.001c0-.031.003-.07.009-.099.024-.132.041-.271.041-.409 0-1.103-.897-2-2-2-.974 0-1.823.722-1.977 1.679-.024.153-.119.286-.254.36-.136.074-.298.082-.441.019-.087-.038-.197-.058-.328-.058z"/></svg>