<?xml version="1.0" encoding="utf-8"?>
<!DOCTYPE svg PUBLIC "-//W3C//DTD SVG 1.0//EN" "http://www.w3.org/TR/2001/REC-SVG-20010904/DTD/svg10.dtd">
<svg    fill="#000000" xmlns="http://www.w3.org/2000/svg" xmlns:xlink="http://www.w3.org/1999/xlink" version="1.1" x="0px" y="0px" viewBox="0 0 16 16" style="enable-background:new 0 0 16 16;" xml:space="preserve"><g><path d="M8,16c-3.309,0-6-2.691-6-6c0-2.364,1.566-4.361,3.224-6.475c0.818-1.043,1.664-2.122,2.346-3.279C7.659,0.094,7.823,0,8,0   l0,0c0.177,0,0.341,0.094,0.431,0.246c0.682,1.158,1.528,2.236,2.346,3.28C12.435,5.64,14,7.637,14,10C14,13.309,11.309,16,8,16z    M8,1.447C7.381,2.395,6.687,3.28,6.011,4.142C4.462,6.117,3,7.981,3,10c0,2.757,2.243,5,5,5s5-2.243,5-5   c0-2.018-1.462-3.883-3.011-5.857C9.313,3.281,8.619,2.395,8,1.447z"></path><path d="M6.5,9C5.673,9,5,8.327,5,7.5S5.673,6,6.5,6S8,6.673,8,7.5S7.327,9,6.5,9z M6.5,7C6.224,7,6,7.224,6,7.5S6.224,8,6.5,8   S7,7.776,7,7.5S6.776,7,6.5,7z"></path><path d="M9.5,14C8.673,14,8,13.327,8,12.5S8.673,11,9.5,11s1.5,0.673,1.5,1.5S10.327,14,9.5,14z M9.5,12C9.225,12,9,12.225,9,12.5   S9.225,13,9.5,13s0.5-0.225,0.5-0.5S9.775,12,9.5,12z"></path><path d="M5.5,13c-0.128,0-0.256-0.049-0.354-0.146c-0.195-0.195-0.195-0.512,0-0.707l5-5c0.195-0.195,0.512-0.195,0.707,0   s0.195,0.512,0,0.707l-5,5C5.756,12.951,5.628,13,5.5,13z"></path></g></svg>