<svg enable-background="new 0 0 16 16" viewBox="0 0 16 16" xmlns="http://www.w3.org/2000/svg"><path d="m8 16c-3.309 0-6-2.691-6-6 0-2.364 1.566-4.361 3.224-6.475.818-1.043 1.664-2.122 2.346-3.279.089-.152.253-.246.43-.246s.341.094.431.246c.682 1.158 1.528 2.236 2.346 3.28 1.658 2.114 3.223 4.111 3.223 6.474 0 3.309-2.691 6-6 6zm0-14.553c-.619.948-1.313 1.833-1.989 2.695-1.549 1.975-3.011 3.839-3.011 5.858 0 2.757 2.243 5 5 5s5-2.243 5-5c0-2.018-1.462-3.883-3.011-5.857-.676-.862-1.37-1.748-1.989-2.696z"/></svg>