<?xml version="1.0" encoding="utf-8"?>
<!DOCTYPE svg PUBLIC "-//W3C//DTD SVG 1.0//EN" "http://www.w3.org/TR/2001/REC-SVG-20010904/DTD/svg10.dtd">
<svg    fill="#000000" xmlns="http://www.w3.org/2000/svg" xmlns:xlink="http://www.w3.org/1999/xlink" version="1.1" x="0px" y="0px" viewBox="0 0 16 16" style="enable-background:new 0 0 16 16;" xml:space="preserve"><path d="M8,16c-3.309,0-6-2.691-6-6c0-2.364,1.566-4.361,3.224-6.475c0.818-1.043,1.664-2.122,2.346-3.279C7.659,0.094,7.823,0,8,0  l0,0c0.177,0,0.341,0.094,0.431,0.246c0.682,1.158,1.528,2.236,2.346,3.28C12.435,5.64,14,7.637,14,10C14,13.309,11.309,16,8,16z   M8,1.447C7.381,2.395,6.687,3.28,6.011,4.142C4.462,6.117,3,7.981,3,10c0,2.757,2.243,5,5,5s5-2.243,5-5  c0-2.018-1.462-3.883-3.011-5.857C9.313,3.281,8.619,2.395,8,1.447z"></path></svg>