<?xml version="1.0" encoding="utf-8"?>
<!DOCTYPE svg PUBLIC "-//W3C//DTD SVG 1.0//EN" "http://www.w3.org/TR/2001/REC-SVG-20010904/DTD/svg10.dtd">
<svg    fill="#000000" xmlns="http://www.w3.org/2000/svg" xmlns:xlink="http://www.w3.org/1999/xlink" version="1.1" x="0px" y="0px" viewBox="0 0 16 16" style="enable-background:new 0 0 16 16;" xml:space="preserve"><g><path d="M13,11H7.5C7.224,11,7,10.776,7,10.5S7.224,10,7.5,10H13c1.103,0,2-0.897,2-2c0-1.103-0.897-2-2-2   c-0.147,0-0.297,0.017-0.428,0.042c-0.137,0.024-0.28-0.008-0.392-0.091c-0.112-0.084-0.184-0.211-0.197-0.35   C11.775,3.548,10.063,2,8,2C6.297,2,4.779,3.079,4.223,4.684C4.138,4.929,3.882,5.07,3.629,5.005C3.606,5,3.54,5,3.5,5   C2.122,5,1,6.122,1,7.5c0,0.393,0.086,0.765,0.257,1.106c0.124,0.247,0.023,0.547-0.224,0.671C0.786,9.401,0.486,9.3,0.363,9.054   C0.122,8.572,0,8.05,0,7.5c0-1.902,1.525-3.454,3.416-3.499C4.203,2.191,5.999,1,8,1c2.409,0,4.436,1.688,4.902,4.001   C14.65,4.965,16,6.313,16,8C16,9.654,14.654,11,13,11z"></path><path d="M3.5,16c-0.032,0-0.063-0.003-0.095-0.009C3.17,15.945,3,15.739,3,15.5V13H1.5c-0.166,0-0.321-0.082-0.414-0.22   c-0.093-0.138-0.112-0.312-0.05-0.466l2-5c0.089-0.224,0.326-0.349,0.559-0.306C3.83,7.054,4,7.26,4,7.5V10h1.5   c0.166,0,0.321,0.082,0.414,0.22c0.093,0.138,0.112,0.312,0.05,0.466l-2,5C3.887,15.878,3.701,16,3.5,16z M2.238,12H3.5   C3.776,12,4,12.224,4,12.5v0.403L4.762,11H3.5C3.224,11,3,10.776,3,10.5v-0.403L2.238,12z"></path><path d="M13.5,16c-0.827,0-1.5-0.673-1.5-1.5c0-0.639,0.762-1.811,1.089-2.284c0.186-0.27,0.637-0.27,0.822,0   C14.238,12.689,15,13.861,15,14.5C15,15.327,14.327,16,13.5,16z M13.5,13.427c-0.288,0.485-0.496,0.921-0.5,1.074   C13,14.775,13.225,15,13.5,15s0.5-0.225,0.5-0.5C13.995,14.347,13.788,13.912,13.5,13.427z"></path><path d="M9.5,16C8.673,16,8,15.327,8,14.5c0-0.639,0.762-1.811,1.089-2.284c0.186-0.27,0.637-0.27,0.822,0   C10.238,12.689,11,13.861,11,14.5C11,15.327,10.327,16,9.5,16z M9.5,13.427c-0.288,0.485-0.496,0.921-0.5,1.074   C9,14.775,9.225,15,9.5,15s0.5-0.225,0.5-0.5C9.995,14.347,9.788,13.912,9.5,13.427z"></path></g><path d="M13,6c-0.228,0-0.448-0.025-0.654-0.073c-0.27-0.063-0.436-0.333-0.372-0.602c0.062-0.268,0.331-0.434,0.601-0.372  C12.706,4.984,12.85,5,13,5c1.103,0,2-0.897,2-2s-0.897-2-2-2c-0.891,0-1.685,0.599-1.93,1.457  c-0.076,0.265-0.351,0.416-0.618,0.344c-0.265-0.076-0.419-0.353-0.343-0.618C10.476,0.897,11.665,0,13,0c1.654,0,3,1.346,3,3  S14.654,6,13,6z"></path></svg>