<?xml version="1.0" encoding="utf-8"?>
<!DOCTYPE svg PUBLIC "-//W3C//DTD SVG 1.0//EN" "http://www.w3.org/TR/2001/REC-SVG-20010904/DTD/svg10.dtd">
<svg    fill="#000000" xmlns="http://www.w3.org/2000/svg" xmlns:xlink="http://www.w3.org/1999/xlink" version="1.1" x="0px" y="0px" viewBox="0 0 16 16" style="enable-background:new 0 0 16 16;" xml:space="preserve"><g><path d="M4.5,16C4.224,16,4,15.776,4,15.5v-15C4,0.224,4.224,0,4.5,0S5,0.224,5,0.5v15C5,15.776,4.776,16,4.5,16z"></path><path d="M13.5,7h-9C4.224,7,4,6.776,4,6.5S4.224,6,4.5,6H13V1H4.5C4.224,1,4,0.776,4,0.5S4.224,0,4.5,0h9C13.776,0,14,0.224,14,0.5   v6C14,6.776,13.776,7,13.5,7z"></path><path d="M10.5,5h-3C7.224,5,7,4.776,7,4.5v-2C7,2.224,7.224,2,7.5,2h3C10.776,2,11,2.224,11,2.5v2C11,4.776,10.776,5,10.5,5z M8,4   h2V3H8V4z"></path></g></svg>