<svg enable-background="new 0 0 16 16" viewBox="0 0 16 16" xmlns="http://www.w3.org/2000/svg"><path d="m13 11h-5.5c-.276 0-.5-.224-.5-.5s.224-.5.5-.5h5.5c1.103 0 2-.897 2-2s-.897-2-2-2c-.147 0-.297.017-.428.042-.137.024-.28-.008-.392-.091-.112-.084-.184-.211-.197-.35-.208-2.053-1.92-3.601-3.983-3.601-1.703 0-3.221 1.079-3.777 2.684-.085.245-.341.386-.594.321-.023-.005-.089-.005-.129-.005-1.378 0-2.5 1.122-2.5 2.5 0 .393.086.765.257 1.106.124.247.023.547-.224.671s-.547.023-.67-.223c-.241-.482-.363-1.004-.363-1.554 0-1.902 1.525-3.454 3.416-3.499.787-1.81 2.583-3.001 4.584-3.001 2.409 0 4.436 1.688 4.902 4.001 1.748-.036 3.098 1.312 3.098 2.999 0 1.654-1.346 3-3 3z"/><path d="m3.5 16c-.032 0-.063-.003-.095-.009-.235-.046-.405-.252-.405-.491v-2.5h-1.5c-.166 0-.321-.082-.414-.22s-.112-.312-.05-.466l2-5c.089-.224.326-.349.559-.306.235.046.405.252.405.492v2.5h1.5c.166 0 .321.082.414.22s.112.312.05.466l-2 5c-.077.192-.263.314-.464.314zm-1.262-4h1.262c.276 0 .5.224.5.5v.403l.762-1.903h-1.262c-.276 0-.5-.224-.5-.5v-.403z"/><path d="m13.5 16c-.827 0-1.5-.673-1.5-1.5 0-.639.762-1.811 1.089-2.284.186-.27.637-.27.822 0 .327.473 1.089 1.645 1.089 2.284 0 .827-.673 1.5-1.5 1.5zm0-2.573c-.288.485-.496.921-.5 1.074 0 .274.225.499.5.499s.5-.225.5-.5c-.005-.153-.212-.588-.5-1.073z"/><path d="m9.5 16c-.827 0-1.5-.673-1.5-1.5 0-.639.762-1.811 1.089-2.284.186-.27.637-.27.822 0 .327.473 1.089 1.645 1.089 2.284 0 .827-.673 1.5-1.5 1.5zm0-2.573c-.288.485-.496.921-.5 1.074 0 .274.225.499.5.499s.5-.225.5-.5c-.005-.153-.212-.588-.5-1.073z"/></svg>