<?xml version="1.0" encoding="utf-8"?>
<!DOCTYPE svg PUBLIC "-//W3C//DTD SVG 1.0//EN" "http://www.w3.org/TR/2001/REC-SVG-20010904/DTD/svg10.dtd">
<svg    fill="#000000" xmlns="http://www.w3.org/2000/svg" xmlns:xlink="http://www.w3.org/1999/xlink" version="1.1" x="0px" y="0px" viewBox="0 0 16 16" style="enable-background:new 0 0 16 16;" xml:space="preserve"><g><path d="M15.5,13H10c-0.133,0-0.26-0.053-0.354-0.146L8,11.207l-1.646,1.646C6.26,12.947,6.133,13,6,13H0.5   C0.224,13,0,12.776,0,12.5S0.224,12,0.5,12h5.293l1.854-1.854c0.195-0.195,0.512-0.195,0.707,0L10.207,12H15.5   c0.276,0,0.5,0.224,0.5,0.5S15.776,13,15.5,13z"></path><path d="M12.24,11c-0.057,0-0.114-0.01-0.17-0.03c-0.26-0.094-0.395-0.38-0.3-0.64C11.923,9.908,12,9.461,12,9c0-2.206-1.794-4-4-4   C5.794,5,4,6.794,4,9c0,0.461,0.077,0.908,0.23,1.33c0.094,0.26-0.041,0.546-0.3,0.64c-0.257,0.096-0.546-0.039-0.64-0.3   C3.098,10.139,3,9.577,3,9c0-2.757,2.243-5,5-5s5,2.243,5,5c0,0.577-0.098,1.139-0.29,1.67C12.637,10.874,12.444,11,12.24,11z"></path><path d="M8,3C7.724,3,7.5,2.776,7.5,2.5v-1C7.5,1.224,7.724,1,8,1s0.5,0.224,0.5,0.5v1C8.5,2.776,8.276,3,8,3z"></path><path d="M1.5,9.5h-1C0.224,9.5,0,9.276,0,9s0.224-0.5,0.5-0.5h1C1.776,8.5,2,8.724,2,9S1.776,9.5,1.5,9.5z"></path><path d="M15.5,9.5h-1C14.224,9.5,14,9.276,14,9s0.224-0.5,0.5-0.5h1C15.776,8.5,16,8.724,16,9S15.776,9.5,15.5,9.5z"></path><path d="M3.404,4.904c-0.128,0-0.256-0.049-0.354-0.146L2.343,4.05c-0.195-0.195-0.195-0.512,0-0.707s0.512-0.195,0.707,0   L3.757,4.05c0.195,0.195,0.195,0.512,0,0.707C3.66,4.855,3.532,4.904,3.404,4.904z"></path><path d="M12.596,4.904c-0.128,0-0.256-0.049-0.354-0.146c-0.195-0.195-0.195-0.512,0-0.707l0.707-0.707   c0.195-0.195,0.512-0.195,0.707,0s0.195,0.512,0,0.707l-0.707,0.707C12.852,4.855,12.724,4.904,12.596,4.904z"></path></g></svg>