<svg enable-background="new 0 0 16 16" viewBox="0 0 16 16" xmlns="http://www.w3.org/2000/svg"><path d="m15.5 13h-5.5c-.133 0-.26-.053-.354-.146l-1.646-1.647-1.646 1.646c-.094.094-.221.147-.354.147h-5.5c-.276 0-.5-.224-.5-.5s.224-.5.5-.5h5.293l1.854-1.854c.195-.195.512-.195.707 0l1.853 1.854h5.293c.276 0 .5.224.5.5s-.224.5-.5.5z"/><path d="m12.24 11c-.057 0-.114-.01-.17-.03-.26-.094-.395-.38-.3-.64.153-.422.23-.869.23-1.33 0-2.206-1.794-4-4-4s-4 1.794-4 4c0 .461.077.908.23 1.33.094.26-.041.546-.3.64-.257.096-.546-.039-.64-.3-.192-.531-.29-1.093-.29-1.67 0-2.757 2.243-5 5-5s5 2.243 5 5c0 .577-.098 1.139-.29 1.67-.073.204-.266.33-.47.33z"/><path d="m8 3c-.276 0-.5-.224-.5-.5v-1c0-.276.224-.5.5-.5s.5.224.5.5v1c0 .276-.224.5-.5.5z"/><path d="m1.5 9.5h-1c-.276 0-.5-.224-.5-.5s.224-.5.5-.5h1c.276 0 .5.224.5.5s-.224.5-.5.5z"/><path d="m15.5 9.5h-1c-.276 0-.5-.224-.5-.5s.224-.5.5-.5h1c.276 0 .5.224.5.5s-.224.5-.5.5z"/><path d="m3.404 4.904c-.128 0-.256-.049-.354-.146l-.707-.708c-.195-.195-.195-.512 0-.707s.512-.195.707 0l.707.707c.195.195.195.512 0 .707-.097.098-.225.147-.353.147z"/><path d="m12.596 4.904c-.128 0-.256-.049-.354-.146-.195-.195-.195-.512 0-.707l.707-.707c.195-.195.512-.195.707 0s.195.512 0 .707l-.707.707c-.097.097-.225.146-.353.146z"/></svg>