<?xml version="1.0" encoding="utf-8"?>
<!DOCTYPE svg PUBLIC "-//W3C//DTD SVG 1.0//EN" "http://www.w3.org/TR/2001/REC-SVG-20010904/DTD/svg10.dtd">
<svg    fill="#000000" xmlns="http://www.w3.org/2000/svg" xmlns:xlink="http://www.w3.org/1999/xlink" version="1.1" x="0px" y="0px" viewBox="0 0 16 16" style="enable-background:new 0 0 16 16;" xml:space="preserve"><g><path d="M7,16c-1.654,0-3-1.346-3-3c0-0.864,0.361-1.666,1-2.236V2c0-1.103,0.897-2,2-2c1.103,0,2,0.897,2,2v8.764   c0.639,0.57,1,1.372,1,2.236C10,14.654,8.654,16,7,16z M7,1C6.449,1,6,1.449,6,2v9c0,0.157-0.074,0.305-0.199,0.399   C5.292,11.783,5,12.366,5,13c0,1.103,0.897,2,2,2c1.103,0,2-0.897,2-2c0-0.634-0.292-1.217-0.801-1.601C8.073,11.305,8,11.157,8,11   V2C8,1.449,7.551,1,7,1z M5.5,11h0.01H5.5z"></path><path d="M8.5,6h-1C7.224,6,7,5.776,7,5.5S7.224,5,7.5,5h1C8.776,5,9,5.224,9,5.5S8.776,6,8.5,6z"></path><path d="M8.5,9h-1C7.224,9,7,8.776,7,8.5S7.224,8,7.5,8h1C8.776,8,9,8.224,9,8.5S8.776,9,8.5,9z"></path></g></svg>