<svg enable-background="new 0 0 16 16" viewBox="0 0 16 16" xmlns="http://www.w3.org/2000/svg"><path d="m2.25 10.72c-.068 0-.137-.014-.204-.044-1.243-.555-2.046-1.802-2.046-3.176 0-1.902 1.525-3.454 3.416-3.499.787-1.81 2.583-3.001 4.584-3.001 2.409 0 4.436 1.688 4.902 4.001 1.748-.036 3.098 1.312 3.098 2.999 0 .973-.476 1.889-1.271 2.449-.227.158-.538.104-.697-.121-.158-.227-.104-.538.121-.697.531-.373.847-.984.847-1.631 0-1.103-.897-2-2-2-.147 0-.297.017-.428.042-.137.024-.28-.008-.392-.091-.112-.084-.184-.211-.197-.35-.208-2.053-1.92-3.601-3.983-3.601-1.703 0-3.221 1.079-3.777 2.684-.085.245-.341.386-.594.321-.023-.005-.089-.005-.129-.005-1.378 0-2.5 1.122-2.5 2.5 0 .98.571 1.869 1.454 2.264.252.112.365.408.252.66-.082.185-.265.296-.456.296z"/><path d="m5.5 16c-.032 0-.063-.003-.095-.009-.235-.046-.405-.252-.405-.491v-2.5h-1.5c-.166 0-.321-.082-.414-.22s-.112-.312-.05-.466l2-5c.089-.223.324-.348.559-.305.235.045.405.251.405.491v2.5h1.5c.166 0 .321.082.414.22s.111.312.05.466l-2 5c-.077.192-.263.314-.464.314zm-1.262-4h1.262c.276 0 .5.224.5.5v.403l.762-1.903h-1.262c-.276 0-.5-.224-.5-.5v-.403z"/><path d="m10.5 16c-.031 0-.062-.003-.095-.009-.235-.046-.405-.252-.405-.491v-2.5h-1.5c-.166 0-.321-.082-.414-.22s-.112-.312-.05-.466l2-5c.088-.223.316-.351.559-.306.235.046.405.252.405.492v2.5h1.5c.166 0 .321.082.414.22s.111.312.05.466l-2 5c-.076.192-.263.314-.464.314zm-1.262-4h1.262c.276 0 .5.224.5.5v.403l.762-1.903h-1.262c-.276 0-.5-.224-.5-.5v-.403z"/></svg>