<?xml version="1.0" encoding="utf-8"?>
<!DOCTYPE svg PUBLIC "-//W3C//DTD SVG 1.0//EN" "http://www.w3.org/TR/2001/REC-SVG-20010904/DTD/svg10.dtd">
<svg    fill="#000000" xmlns="http://www.w3.org/2000/svg" xmlns:xlink="http://www.w3.org/1999/xlink" version="1.1" x="0px" y="0px" viewBox="0 0 16 16" style="enable-background:new 0 0 16 16;" xml:space="preserve"><path d="M7.5,16c-0.034,0-0.069-0.004-0.104-0.011C7.165,15.94,7,15.736,7,15.5V10H3.5c-0.169,0-0.327-0.086-0.419-0.228  C2.989,9.631,2.974,9.451,3.043,9.297l4-9c0.096-0.215,0.328-0.333,0.561-0.286C7.835,0.06,8,0.264,8,0.5V6h3.5  c0.169,0,0.327,0.085,0.419,0.228c0.093,0.142,0.106,0.321,0.038,0.476l-4,9C7.875,15.887,7.694,16,7.5,16z M4.27,9H7.5  C7.776,9,8,9.224,8,9.5v3.644L10.73,7H7.5C7.224,7,7,6.776,7,6.5V2.856L4.27,9z"></path></svg>