<svg enable-background="new 0 0 16 16" viewBox="0 0 16 16" xmlns="http://www.w3.org/2000/svg"><path d="m8 5c-2.981 0-6-.859-6-2.5 0-3.282 12-3.282 12 0 0 1.641-3.019 2.5-6 2.5zm0-4c-3.006 0-5 .903-5 1.5s1.994 1.5 5 1.5 5-.903 5-1.5-1.994-1.5-5-1.5z"/><path d="m7.5 7c-2.667 0-5.5-.876-5.5-2.5 0-.372.162-.923.933-1.436l.555.832c-.31.206-.488.426-.488.604 0 .612 1.753 1.5 4.5 1.5s4.5-.888 4.5-1.5c0-.07-.019-.184-.183-.355l.725-.69c.304.319.458.67.458 1.045 0 1.624-2.834 2.5-5.5 2.5z"/><path d="m7.5 9c-2.851 0-5-1.075-5-2.5 0-.438.201-.855.58-1.207l.68.733c-.119.111-.26.282-.26.474 0 .612 1.558 1.5 4 1.5 2.441 0 4-.888 4-1.5 0-.192-.142-.363-.26-.473l.68-.733c.38.352.58.768.58 1.206 0 1.425-2.149 2.5-5 2.5z"/><path d="m8 11c-2.243 0-4-1.098-4-2.5 0-.259.057-.496.169-.706l.882.473c-.034.063-.051.139-.051.233 0 .71 1.232 1.5 3 1.5s3-.79 3-1.5c0-.171-.071-.344-.219-.525l.777-.629c.294.362.442.751.442 1.154 0 1.402-1.757 2.5-4 2.5z"/><path d="m8.5 13c-1.962 0-3.5-1.098-3.5-2.5 0-.264.057-.517.168-.753l.904.426c-.048.103-.072.211-.072.327 0 .813 1.145 1.5 2.5 1.5s2.5-.687 2.5-1.5c0-.308-.166-.55-.306-.698l.73-.684c.377.403.576.881.576 1.382 0 1.402-1.537 2.5-3.5 2.5z"/><path d="m8.5 15c-1.378 0-2.5-1.121-2.5-2.5 0-.213.026-.417.077-.609l.967.258c-.029.107-.044.225-.044.351 0 .827.673 1.5 1.5 1.5s1.5-.673 1.5-1.5c0-.127-.015-.245-.043-.352l.967-.258c.051.191.076.396.076.61 0 1.379-1.121 2.5-2.5 2.5z"/></svg>