<?xml version="1.0" encoding="utf-8"?>
<!DOCTYPE svg PUBLIC "-//W3C//DTD SVG 1.0//EN" "http://www.w3.org/TR/2001/REC-SVG-20010904/DTD/svg10.dtd">
<svg    fill="#000000" xmlns="http://www.w3.org/2000/svg" xmlns:xlink="http://www.w3.org/1999/xlink" version="1.1" x="0px" y="0px" viewBox="0 0 16 16" style="enable-background:new 0 0 16 16;" xml:space="preserve"><g><path d="M15.5,14h-15C0.224,14,0,13.776,0,13.5S0.224,13,0.5,13h15c0.276,0,0.5,0.224,0.5,0.5S15.776,14,15.5,14z"></path><path d="M14.5,14h-4c-0.276,0-0.5-0.224-0.5-0.5V11H9.5c-0.202,0-0.385-0.122-0.462-0.309s-0.034-0.402,0.108-0.545l3-3   c0.195-0.195,0.512-0.195,0.707,0l3,3c0.143,0.143,0.186,0.358,0.108,0.545S15.702,11,15.5,11H15v2.5C15,13.776,14.776,14,14.5,14z    M11,13h3v-2.5c0-0.215,0.135-0.397,0.324-0.469L12.5,8.207l-1.824,1.824C10.865,10.103,11,10.285,11,10.5V13z"></path><path d="M2.26,14c-0.146,0-0.292-0.064-0.391-0.188C0.664,12.311,0,10.424,0,8.5C0,3.813,3.813,0,8.5,0   c1.104,0,2.181,0.211,3.199,0.627c0.255,0.104,0.378,0.396,0.273,0.652c-0.104,0.256-0.397,0.378-0.652,0.274   C10.423,1.186,9.474,1,8.5,1C4.364,1,1,4.364,1,8.5c0,1.697,0.586,3.361,1.65,4.688c0.173,0.215,0.138,0.529-0.077,0.702   C2.48,13.964,2.37,14,2.26,14z"></path><path d="M5.11,14c-0.181,0-0.355-0.098-0.444-0.27C4.224,12.88,4,11.961,4,11c0-2.892,2.057-5.37,4.89-5.892   c0.275-0.05,0.532,0.129,0.583,0.401c0.05,0.271-0.13,0.532-0.401,0.582C6.712,6.526,5,8.591,5,11c0,0.799,0.186,1.562,0.554,2.27   c0.127,0.245,0.032,0.547-0.213,0.674C5.267,13.982,5.188,14,5.11,14z"></path><path d="M10.67,3.67c-0.176,0-0.347-0.093-0.438-0.258C10.08,3.137,10,2.821,10,2.5c0-0.867,0.545-1.625,1.356-1.886   c0.263-0.082,0.545,0.06,0.629,0.323c0.085,0.263-0.06,0.544-0.322,0.629C11.267,1.693,11,2.069,11,2.5   c0,0.153,0.037,0.301,0.107,0.428c0.134,0.242,0.046,0.546-0.195,0.679C10.835,3.65,10.752,3.67,10.67,3.67z"></path><path d="M8.98,6.1c-0.122,0-0.244-0.044-0.341-0.134C8.228,5.582,8,5.061,8,4.5c0-1.103,0.897-2,2-2c0.319,0,0.635,0.08,0.91,0.231   c0.242,0.133,0.331,0.437,0.198,0.679c-0.133,0.243-0.439,0.328-0.679,0.198C10.301,3.538,10.151,3.5,10,3.5c-0.552,0-1,0.449-1,1   c0,0.28,0.114,0.541,0.321,0.734c0.202,0.188,0.213,0.504,0.025,0.707C9.248,6.047,9.114,6.1,8.98,6.1z"></path></g></svg>