<svg enable-background="new 0 0 100 100" viewBox="0 0 100 100" xmlns="http://www.w3.org/2000/svg"><path d="m49 50c-1.657 0-3 1.343-3 3v32c0 3.321-2.424 4.5-4.5 4.5s-4.5-1.179-4.5-4.5c0-1.655 1.123-2.879 1.122-2.879 1.172-1.171 1.172-3.071 0-4.242-1.171-1.172-3.071-1.172-4.242 0-.296.294-2.88 2.997-2.88 7.121 0 3.152 1.19 5.946 3.351 7.867 1.91 1.698 4.449 2.633 7.149 2.633 5.218 0 10.5-3.606 10.5-10.5v-32c0-1.657-1.343-3-3-3z"/><path d="m18 70.653-.464 1.161c-.34.85-2.036 5.143-2.036 6.186 0 1.285 1.215 2.5 2.5 2.5s2.5-1.215 2.5-2.5c0-1.043-1.696-5.336-2.036-6.186z"/><path d="m72.464 61.814-.464-1.161-.464 1.161c-.34.85-2.036 5.143-2.036 6.186 0 1.285 1.215 2.5 2.5 2.5s2.5-1.215 2.5-2.5c0-1.043-1.696-5.336-2.036-6.186z"/><path d="m91 52c0-10.268-4.141-20.374-11.359-27.727-7.118-7.249-16.844-11.515-27.641-12.181v-5.092c0-1.657-1.343-3-3-3s-3 1.343-3 3v5.092c-10.796.667-20.523 4.933-27.641 12.182-7.219 7.352-11.359 17.458-11.359 27.726v1c0 1.657 1.343 3 3 3s3-1.343 3-3c0-2.619 2.153-4.75 4.8-4.75s4.8 2.131 4.8 4.75c0 1.657 1.343 3 3 3s3-1.343 3-3c0-2.619 2.154-4.75 4.801-4.75 2.646 0 4.8 2.131 4.8 4.75 0 1.657 1.343 3 3 3s3-1.343 3-3c0-2.619 2.153-4.75 4.8-4.75s4.8 2.131 4.8 4.75c0 1.657 1.343 3 3 3s3-1.343 3-3c0-2.619 2.153-4.75 4.8-4.75s4.801 2.131 4.801 4.75c0 1.657 1.343 3 3 3s3-1.343 3-3c0-2.619 2.153-4.75 4.8-4.75s4.798 2.131 4.798 4.75c0 1.657 1.343 3 3 3s3-1.343 3-3c0-.22-.007-.438-.02-.654.013-.114.02-.229.02-.346zm-65-10.5c-1.285 0-2.5-1.215-2.5-2.5 0-1.043 1.696-5.336 2.036-6.186l.464-1.16.464 1.161c.34.85 2.036 5.142 2.036 6.186 0 1.284-1.215 2.499-2.5 2.499zm29-13c-1.285 0-2.5-1.215-2.5-2.5 0-1.043 1.696-5.336 2.036-6.186l.464-1.16.464 1.161c.34.85 2.036 5.142 2.036 6.186 0 1.284-1.215 2.499-2.5 2.499zm10 11c-1.285 0-2.5-1.215-2.5-2.5 0-1.043 1.696-5.336 2.036-6.186l.464-1.16.464 1.161c.34.85 2.036 5.142 2.036 6.186 0 1.284-1.215 2.499-2.5 2.499z"/></svg>