<svg enable-background="new 0 0 16 16" viewBox="0 0 16 16" xmlns="http://www.w3.org/2000/svg"><path d="m8 15c-3.86 0-7-3.141-7-7 0-3.86 3.14-7 7-7 1.553 0 3.083.528 4.308 1.486.218.17.257.484.086.702s-.486.254-.701.086c-1.067-.834-2.343-1.274-3.693-1.274-3.309 0-6 2.691-6 6s2.691 6 6 6c1.351 0 2.627-.44 3.691-1.273.218-.172.531-.133.702.085.17.218.132.532-.085.702-1.225.959-2.754 1.486-4.308 1.486z"/><path d="m12 13.62c-.107 0-.216-.034-.307-.105-1.712-1.328-2.693-3.339-2.693-5.515 0-.218.011-.424.033-.641.093-1.073.443-2.125 1.013-3.034.431-.709.986-1.331 1.649-1.841.219-.17.532-.129.701.091.168.219.127.533-.092.701-.564.435-1.038.964-1.407 1.573-.489.782-.788 1.68-.869 2.604-.019.191-.028.364-.028.547 0 1.865.841 3.587 2.307 4.726.218.169.258.483.088.701-.098.127-.247.193-.395.193z"/><path d="m9.53 7.91c-.048 0-.096-.007-.144-.021-.828-.249-1.386-1.008-1.386-1.889 0-1.103.897-2 2-2 .228 0 .448.042.656.126.256.103.381.394.277.65-.103.256-.394.379-.65.277-.088-.034-.185-.053-.283-.053-.552 0-1 .449-1 1 0 .436.271.811.674.931.265.08.415.358.335.623-.065.217-.264.356-.479.356z"/><path d="m6.5 12c-.827 0-1.5-.673-1.5-1.5s.673-1.5 1.5-1.5 1.5.673 1.5 1.5-.673 1.5-1.5 1.5zm0-2c-.276 0-.5.225-.5.5s.224.5.5.5.5-.225.5-.5-.224-.5-.5-.5z"/></svg>