<svg enable-background="new 0 0 16 16" viewBox="0 0 16 16" xmlns="http://www.w3.org/2000/svg"><path d="m8 15c-3.86 0-7-3.141-7-7 0-3.86 3.14-7 7-7 .731 0 1.455.112 2.151.333.207.066.349.259.349.476 0 .218-.14.41-.347.477-2.484.799-4.153 3.096-4.153 5.714s1.669 4.914 4.153 5.715c.207.066.348.26.347.477-.001.218-.142.41-.35.476-.698.22-1.421.332-2.15.332zm0-13c-3.309 0-6 2.691-6 6 0 3.429 2.929 6.184 6.361 5.989-2.059-1.247-3.361-3.493-3.361-5.989 0-2.497 1.302-4.743 3.361-5.989-.12-.008-.24-.011-.361-.011z"/></svg>