<?xml version="1.0" encoding="utf-8"?>
<!DOCTYPE svg PUBLIC "-//W3C//DTD SVG 1.0//EN" "http://www.w3.org/TR/2001/REC-SVG-20010904/DTD/svg10.dtd">
<svg    fill="#000000" xmlns="http://www.w3.org/2000/svg" xmlns:xlink="http://www.w3.org/1999/xlink" version="1.1" x="0px" y="0px" viewBox="0 0 16 16" style="enable-background:new 0 0 16 16;" xml:space="preserve"><g><path d="M8,15c-3.86,0-7-3.141-7-7c0-3.86,3.14-7,7-7c0.731,0,1.455,0.112,2.151,0.333C10.358,1.399,10.5,1.592,10.5,1.809   c0,0.218-0.14,0.41-0.347,0.477C7.669,3.085,6,5.382,6,8s1.669,4.914,4.153,5.715c0.207,0.066,0.348,0.26,0.347,0.477   c-0.001,0.218-0.142,0.41-0.35,0.476C9.452,14.888,8.729,15,8,15z M8,2C4.691,2,2,4.691,2,8c0,3.429,2.929,6.184,6.361,5.989   C6.302,12.742,5,10.496,5,8c0-2.497,1.302-4.743,3.361-5.989C8.241,2.003,8.121,2,8,2z"></path></g></svg>