<?xml version="1.0" encoding="utf-8"?>
<!DOCTYPE svg PUBLIC "-//W3C//DTD SVG 1.0//EN" "http://www.w3.org/TR/2001/REC-SVG-20010904/DTD/svg10.dtd">
<svg    fill="#000000" xmlns="http://www.w3.org/2000/svg" xmlns:xlink="http://www.w3.org/1999/xlink" version="1.1" x="0px" y="0px" viewBox="0 0 16 16" style="enable-background:new 0 0 16 16;" xml:space="preserve"><g><path d="M8,15c-0.729,0-1.453-0.112-2.151-0.333c-0.263-0.083-0.409-0.364-0.326-0.627c0.083-0.264,0.364-0.407,0.627-0.326   C6.751,13.903,7.374,14,8,14c3.309,0,6-2.691,6-6s-2.691-6-6-6C7.372,2,6.75,2.096,6.151,2.287   C5.888,2.371,5.607,2.225,5.523,1.961s0.062-0.544,0.325-0.628C6.545,1.112,7.269,1,8,1c3.859,0,7,3.14,7,7   C15,11.859,11.859,15,8,15z"></path><path d="M6,14.69c-0.211,0-0.408-0.135-0.476-0.347c-0.084-0.263,0.06-0.545,0.323-0.629C8.331,12.914,10,10.618,10,8   c0-2.619-1.669-4.915-4.153-5.714C5.584,2.202,5.439,1.92,5.524,1.657C5.609,1.394,5.89,1.251,6.153,1.334   C9.052,2.267,11,4.946,11,8c0,3.054-1.947,5.732-4.847,6.666C6.103,14.683,6.051,14.69,6,14.69z"></path><path d="M10.47,7.91c-0.215,0-0.414-0.14-0.479-0.356c-0.08-0.264,0.07-0.543,0.335-0.623C10.729,6.811,11,6.436,11,6   c0-0.551-0.448-1-1-1C9.902,5,9.805,5.019,9.717,5.054C9.461,5.156,9.17,5.032,9.066,4.776C8.963,4.52,9.088,4.229,9.344,4.126   C9.552,4.042,9.772,4,10,4c1.103,0,2,0.897,2,2c0,0.881-0.558,1.64-1.387,1.889C10.565,7.903,10.518,7.91,10.47,7.91z"></path></g></svg>