<svg enable-background="new 0 0 16 16" viewBox="0 0 16 16" xmlns="http://www.w3.org/2000/svg"><path d="m8 15c-.729 0-1.453-.112-2.151-.333-.263-.083-.409-.364-.326-.627.083-.264.364-.407.627-.326.601.189 1.224.286 1.85.286 3.309 0 6-2.691 6-6s-2.691-6-6-6c-.628 0-1.25.096-1.849.287-.263.084-.544-.062-.628-.326s.062-.544.325-.628c.697-.221 1.421-.333 2.152-.333 3.859 0 7 3.14 7 7 0 3.859-3.141 7-7 7z"/><path d="m6 14.69c-.211 0-.408-.135-.476-.347-.084-.263.06-.545.323-.629 2.484-.8 4.153-3.096 4.153-5.714 0-2.619-1.669-4.915-4.153-5.714-.263-.084-.408-.366-.323-.629s.366-.406.629-.323c2.899.933 4.847 3.612 4.847 6.666s-1.947 5.732-4.847 6.666c-.05.017-.102.024-.153.024z"/><path d="m10.47 7.91c-.215 0-.414-.14-.479-.356-.08-.264.07-.543.335-.623.403-.12.674-.495.674-.931 0-.551-.448-1-1-1-.098 0-.195.019-.283.054-.256.102-.547-.022-.651-.278-.103-.256.022-.547.278-.65.208-.084.428-.126.656-.126 1.103 0 2 .897 2 2 0 .881-.558 1.64-1.387 1.889-.048.014-.095.021-.143.021z"/></svg>