<svg enable-background="new 0 0 16 16" viewBox="0 0 16 16" xmlns="http://www.w3.org/2000/svg"><path d="m8 15c-1.575 0-3.065-.514-4.308-1.486-.122-.095-.192-.241-.192-.395s.072-.3.193-.394c1.466-1.137 2.307-2.86 2.307-4.725s-.841-3.587-2.307-4.725c-.121-.095-.193-.24-.193-.394s.071-.3.192-.395c1.244-.972 2.733-1.486 4.308-1.486 3.859 0 7 3.14 7 7 0 3.859-3.141 7-7 7zm-3.187-1.918c.955.603 2.044.918 3.187.918 3.309 0 6-2.691 6-6s-2.691-6-6-6c-1.142 0-2.232.315-3.187.918 1.397 1.313 2.187 3.131 2.187 5.082 0 1.952-.79 3.77-2.187 5.082z"/><path d="m10 8c-1.103 0-2-.897-2-2s.897-2 2-2 2 .897 2 2-.897 2-2 2zm0-3c-.552 0-1 .449-1 1s.448 1 1 1 1-.449 1-1-.448-1-1-1z"/><path d="m6.5 12c-.47 0-.919-.225-1.2-.601-.166-.222-.12-.535.101-.7.221-.166.534-.119.7.101.095.127.24.2.399.2.276 0 .5-.225.5-.5 0-.309-.284-.529-.6-.487-.274.05-.529-.141-.574-.413-.044-.273.141-.53.414-.574.905-.156 1.76.56 1.76 1.474 0 .827-.673 1.5-1.5 1.5z"/></svg>