<svg enable-background="new 0 0 16 16" viewBox="0 0 16 16" xmlns="http://www.w3.org/2000/svg"><path d="m1.5 16c-.276 0-.5-.224-.5-.5v-15c0-.276.224-.5.5-.5s.5.224.5.5v15c0 .276-.224.5-.5.5z"/><path d="m1.5 7c-.249 0-.464-.185-.496-.438-.034-.274.16-.524.434-.558l11.562-1.445v-2.118l-11.562-1.445c-.274-.034-.468-.284-.434-.558.034-.273.283-.464.558-.434l12 1.5c.25.031.438.244.438.496v3c0 .252-.188.465-.438.496l-12 1.5c-.021.003-.042.004-.062.004z"/><path d="m5.5 6.5c-.276 0-.5-.224-.5-.5v-5c0-.276.224-.5.5-.5s.5.224.5.5v5c0 .276-.224.5-.5.5z"/><path d="m9.5 6c-.276 0-.5-.224-.5-.5v-4c0-.276.224-.5.5-.5s.5.224.5.5v4c0 .276-.224.5-.5.5z"/></svg>