<svg enable-background="new 0 0 16 16" viewBox="0 0 16 16" xmlns="http://www.w3.org/2000/svg"><path d="m6.5 14c-.276 0-.5-.224-.5-.5s.224-.5.5-.5.5-.225.5-.5-.224-.5-.5-.5h-6c-.276 0-.5-.224-.5-.5s.224-.5.5-.5h6c.827 0 1.5.673 1.5 1.5s-.673 1.5-1.5 1.5z"/><path d="m9.5 6h-9c-.276 0-.5-.224-.5-.5s.224-.5.5-.5h9c.275 0 .5-.224.5-.5s-.225-.5-.5-.5c-.276 0-.5-.224-.5-.5s.224-.5.5-.5c.827 0 1.5.673 1.5 1.5s-.673 1.5-1.5 1.5z"/><path d="m13.5 9h-13c-.276 0-.5-.224-.5-.5s.224-.5.5-.5h13c.827 0 1.5-.673 1.5-1.5s-.673-1.5-1.5-1.5c-.276 0-.5-.224-.5-.5s.224-.5.5-.5c1.379 0 2.5 1.122 2.5 2.5s-1.121 2.5-2.5 2.5z"/></svg>