<?xml version="1.0" encoding="utf-8"?>
<!DOCTYPE svg PUBLIC "-//W3C//DTD SVG 1.0//EN" "http://www.w3.org/TR/2001/REC-SVG-20010904/DTD/svg10.dtd">
<svg    fill="#000000" xmlns="http://www.w3.org/2000/svg" xmlns:xlink="http://www.w3.org/1999/xlink" version="1.1" x="0px" y="0px" viewBox="0 0 16 16" style="enable-background:new 0 0 16 16;" xml:space="preserve"><g><path d="M4.5,15C4.224,15,4,14.776,4,14.5S4.224,14,4.5,14C4.776,14,5,13.775,5,13.5S4.776,13,4.5,13h-4C0.224,13,0,12.776,0,12.5   S0.224,12,0.5,12h4C5.327,12,6,12.673,6,13.5S5.327,15,4.5,15z"></path><path d="M6.5,11h-6C0.224,11,0,10.776,0,10.5S0.224,10,0.5,10h6C6.776,10,7,9.775,7,9.5S6.776,9,6.5,9C6.224,9,6,8.776,6,8.5   S6.224,8,6.5,8C7.327,8,8,8.673,8,9.5S7.327,11,6.5,11z"></path><path d="M13,11H9.5C9.224,11,9,10.776,9,10.5S9.224,10,9.5,10H13c1.103,0,2-0.897,2-2c0-1.103-0.897-2-2-2   c-0.147,0-0.297,0.017-0.428,0.042c-0.146,0.025-0.297-0.012-0.411-0.107C12.047,5.839,11.98,5.699,11.98,5.55   c-0.146-1.16-0.752-2.169-1.678-2.821C9.633,2.251,8.837,2,8,2C6.297,2,4.779,3.079,4.223,4.684   C4.138,4.929,3.882,5.07,3.629,5.005C3.606,5,3.54,5,3.5,5C2.122,5,1,6.122,1,7.5c0,0.293,0.049,0.569,0.146,0.819   c0.1,0.257-0.028,0.547-0.286,0.646c-0.256,0.1-0.547-0.027-0.647-0.285C0.072,8.314,0,7.917,0,7.5   c0-1.902,1.525-3.454,3.416-3.499C4.203,2.191,5.999,1,8,1c1.047,0,2.042,0.315,2.88,0.913c1.051,0.738,1.771,1.85,2.017,3.089   C14.64,4.943,16,6.312,16,8C16,9.654,14.654,11,13,11z"></path><path d="M9.5,16C8.673,16,8,15.327,8,14.5c0-0.639,0.762-1.811,1.089-2.284c0.186-0.27,0.637-0.27,0.822,0   C10.238,12.689,11,13.861,11,14.5C11,15.327,10.327,16,9.5,16z M9.5,13.427c-0.288,0.485-0.496,0.921-0.5,1.074   C9,14.775,9.225,15,9.5,15s0.5-0.225,0.5-0.5C9.995,14.347,9.788,13.912,9.5,13.427z"></path><g><path d="M13.5,16c-0.276,0-0.5-0.224-0.5-0.5v-3c0-0.276,0.224-0.5,0.5-0.5s0.5,0.224,0.5,0.5v3C14,15.776,13.776,16,13.5,16z"></path><path d="M14.799,15.25c-0.085,0-0.171-0.021-0.25-0.067l-2.598-1.5c-0.239-0.138-0.321-0.443-0.183-0.683    c0.138-0.239,0.445-0.32,0.683-0.183l2.598,1.5c0.239,0.138,0.321,0.443,0.183,0.683C15.14,15.16,14.971,15.25,14.799,15.25z"></path><path d="M12.201,15.25c-0.172,0-0.341-0.09-0.433-0.25c-0.139-0.239-0.057-0.545,0.183-0.683l2.598-1.5    c0.239-0.139,0.546-0.058,0.683,0.183c0.139,0.239,0.057,0.545-0.183,0.683l-2.598,1.5C12.372,15.229,12.286,15.25,12.201,15.25z"></path></g></g></svg>