<?xml version="1.0" encoding="utf-8"?>
<!DOCTYPE svg PUBLIC "-//W3C//DTD SVG 1.0//EN" "http://www.w3.org/TR/2001/REC-SVG-20010904/DTD/svg10.dtd">
<svg    fill="#000000" xmlns="http://www.w3.org/2000/svg" xmlns:xlink="http://www.w3.org/1999/xlink" version="1.1" x="0px" y="0px" viewBox="0 0 16 16" style="enable-background:new 0 0 16 16;" xml:space="preserve"><g><path d="M9,15c-0.171,0-0.333-0.009-0.503-0.019c-0.275-0.017-0.499-0.253-0.483-0.529c0.017-0.275,0.243-0.501,0.515-0.471   l0.026,0.001C8.705,13.991,8.849,14,9,14c3.309,0,6-2.691,6-6s-2.691-6-6-6S3,4.691,3,8c0,0.158,0.009,0.307,0.019,0.465   L2.021,8.53C2.01,8.347,2,8.179,2,8c0-3.86,3.14-7,7-7c3.859,0,7,3.14,7,7C16,11.859,12.859,15,9,15z"></path><path d="M5.5,15C5.224,15,5,14.776,5,14.5S5.224,14,5.5,14C5.776,14,6,13.775,6,13.5S5.776,13,5.5,13h-5C0.224,13,0,12.776,0,12.5   S0.224,12,0.5,12h5C6.327,12,7,12.673,7,13.5S6.327,15,5.5,15z"></path><path d="M7.5,11h-7C0.224,11,0,10.776,0,10.5S0.224,10,0.5,10h7C7.776,10,8,9.775,8,9.5S7.776,9,7.5,9C7.224,9,7,8.776,7,8.5   S7.224,8,7.5,8C8.327,8,9,8.673,9,9.5S8.327,11,7.5,11z"></path></g></svg>