<?xml version="1.0" encoding="utf-8"?>
<!DOCTYPE svg PUBLIC "-//W3C//DTD SVG 1.0//EN" "http://www.w3.org/TR/2001/REC-SVG-20010904/DTD/svg10.dtd">
<svg    fill="#000000" xmlns="http://www.w3.org/2000/svg" xmlns:xlink="http://www.w3.org/1999/xlink" version="1.1" x="0px" y="0px" viewBox="0 0 16 16" style="enable-background:new 0 0 16 16;" xml:space="preserve"><g><path d="M1.5,16C1.224,16,1,15.776,1,15.5v-15C1,0.224,1.224,0,1.5,0S2,0.224,2,0.5v15C2,15.776,1.776,16,1.5,16z"></path><path d="M1.5,7C1.251,7,1.036,6.815,1.004,6.562C0.97,6.288,1.164,6.038,1.438,6.004L13,4.559V2.441L1.438,0.996   C1.164,0.962,0.97,0.712,1.004,0.438c0.034-0.273,0.283-0.464,0.558-0.434l12,1.5C13.812,1.535,14,1.748,14,2v3   c0,0.252-0.188,0.465-0.438,0.496l-12,1.5C1.541,6.999,1.52,7,1.5,7z"></path><path d="M5.5,6.5C5.224,6.5,5,6.276,5,6V1c0-0.276,0.224-0.5,0.5-0.5S6,0.724,6,1v5C6,6.276,5.776,6.5,5.5,6.5z"></path><path d="M9.5,6C9.224,6,9,5.776,9,5.5v-4C9,1.224,9.224,1,9.5,1S10,1.224,10,1.5v4C10,5.776,9.776,6,9.5,6z"></path></g></svg>