<svg enable-background="new 0 0 16 16" viewBox="0 0 16 16" xmlns="http://www.w3.org/2000/svg"><path d="m13 6c-.228 0-.448-.025-.654-.073-.27-.063-.436-.333-.372-.602.062-.268.331-.434.601-.372.131.031.275.047.425.047 1.103 0 2-.897 2-2s-.897-2-2-2c-.891 0-1.685.599-1.93 1.457-.076.265-.351.416-.618.344-.265-.076-.419-.353-.343-.618.367-1.286 1.556-2.183 2.891-2.183 1.654 0 3 1.346 3 3s-1.346 3-3 3z"/><path d="m4.5 15c-.276 0-.5-.224-.5-.5s.224-.5.5-.5.5-.225.5-.5-.224-.5-.5-.5h-4c-.276 0-.5-.224-.5-.5s.224-.5.5-.5h4c.827 0 1.5.673 1.5 1.5s-.673 1.5-1.5 1.5z"/><path d="m6.5 11h-6c-.276 0-.5-.224-.5-.5s.224-.5.5-.5h6c.276 0 .5-.225.5-.5s-.224-.5-.5-.5-.5-.224-.5-.5.224-.5.5-.5c.827 0 1.5.673 1.5 1.5s-.673 1.5-1.5 1.5z"/><path d="m13 11h-3.5c-.276 0-.5-.224-.5-.5s.224-.5.5-.5h3.5c1.103 0 2-.897 2-2s-.897-2-2-2c-.147 0-.297.017-.428.042-.146.025-.297-.012-.411-.107-.114-.096-.181-.236-.181-.385-.146-1.16-.752-2.169-1.678-2.821-.669-.478-1.465-.729-2.302-.729-1.703 0-3.221 1.079-3.777 2.684-.085.245-.341.386-.594.321-.023-.005-.089-.005-.129-.005-1.378 0-2.5 1.122-2.5 2.5 0 .293.049.569.146.819.1.257-.028.547-.286.646-.256.1-.547-.027-.647-.285-.141-.366-.213-.763-.213-1.18 0-1.902 1.525-3.454 3.416-3.499.787-1.81 2.583-3.001 4.584-3.001 1.047 0 2.042.315 2.88.913 1.051.738 1.771 1.85 2.017 3.089 1.743-.059 3.103 1.31 3.103 2.998 0 1.654-1.346 3-3 3z"/><path d="m9.5 16c-.827 0-1.5-.673-1.5-1.5 0-.639.762-1.811 1.089-2.284.186-.27.637-.27.822 0 .327.473 1.089 1.645 1.089 2.284 0 .827-.673 1.5-1.5 1.5zm0-2.573c-.288.485-.496.921-.5 1.074 0 .274.225.499.5.499s.5-.225.5-.5c-.005-.153-.212-.588-.5-1.073z"/><path d="m13.5 16c-.276 0-.5-.224-.5-.5v-3c0-.276.224-.5.5-.5s.5.224.5.5v3c0 .276-.224.5-.5.5z"/><path d="m14.799 15.25c-.085 0-.171-.021-.25-.067l-2.598-1.5c-.239-.138-.321-.443-.183-.683.138-.239.445-.32.683-.183l2.598 1.5c.239.138.321.443.183.683-.092.16-.261.25-.433.25z"/><path d="m12.201 15.25c-.172 0-.341-.09-.433-.25-.139-.239-.057-.545.183-.683l2.598-1.5c.239-.139.546-.058.683.183.139.239.057.545-.183.683l-2.598 1.5c-.079.046-.165.067-.25.067z"/></svg>