<?xml version="1.0" encoding="utf-8"?>
<!DOCTYPE svg PUBLIC "-//W3C//DTD SVG 1.0//EN" "http://www.w3.org/TR/2001/REC-SVG-20010904/DTD/svg10.dtd">
<svg    fill="#000000" xmlns="http://www.w3.org/2000/svg" xmlns:xlink="http://www.w3.org/1999/xlink" version="1.1" x="0px" y="0px" viewBox="0 0 16 16" style="enable-background:new 0 0 16 16;" xml:space="preserve"><g><path d="M6.5,14C6.224,14,6,13.776,6,13.5S6.224,13,6.5,13C6.776,13,7,12.775,7,12.5S6.776,12,6.5,12h-6C0.224,12,0,11.776,0,11.5   S0.224,11,0.5,11h6C7.327,11,8,11.673,8,12.5S7.327,14,6.5,14z"></path><path d="M9.5,6h-9C0.224,6,0,5.776,0,5.5S0.224,5,0.5,5h9C9.775,5,10,4.776,10,4.5S9.775,4,9.5,4C9.224,4,9,3.776,9,3.5   S9.224,3,9.5,3C10.327,3,11,3.673,11,4.5S10.327,6,9.5,6z"></path><path d="M13.5,9h-13C0.224,9,0,8.776,0,8.5S0.224,8,0.5,8h13C14.327,8,15,7.327,15,6.5S14.327,5,13.5,5C13.224,5,13,4.776,13,4.5   S13.224,4,13.5,4C14.879,4,16,5.122,16,6.5S14.879,9,13.5,9z"></path></g></svg>